<svg width="82" height="73" viewBox="0 0 82 73" fill="none" xmlns="http://www.w3.org/2000/svg">
<path d="M80.7028 51.2286C81.8206 51.4787 82.0064 52.2546 81.9968 53.2775C81.9616 58.1897 81.9936 63.1051 81.9776 68.0173C81.9648 71.0922 80.0783 72.9711 76.9555 72.984C71.7252 73.0096 66.4981 72.9904 61.2678 72.9904C42.752 72.9904 24.2362 72.9904 5.72034 72.9904C1.65589 72.9936 0 71.3359 0 67.2702C0 46.7076 0 26.1449 0 5.58233C0 1.72504 1.70393 0.00320639 5.53777 0C29.175 0 52.8154 0 76.4526 0.00320639C80.2801 0.00320639 81.9808 1.72825 81.9808 5.59195C81.9808 19.0524 81.9776 32.5096 81.9872 45.9701C81.9872 46.9673 82.0513 47.9548 80.7124 48.1472C79.4025 47.8522 79.553 46.8134 79.553 45.8579C79.5498 37.704 79.569 29.5501 79.537 21.3963C79.5306 19.9277 80.216 17.9045 79.2455 17.1286C78.1598 16.2628 76.1932 16.8336 74.611 16.9394C74.028 16.9105 73.4419 16.8624 72.859 16.8624C58.9906 16.8592 45.1221 16.8592 31.2537 16.8592C24.9056 16.8592 18.5575 16.856 12.2126 16.8624C11.2229 16.8624 10.246 16.8977 9.90329 15.6697C10.1499 14.4031 11.0819 14.3839 12.1037 14.3839C27.8874 14.3967 43.6712 14.3935 59.455 14.3935C65.6942 14.3935 71.9334 14.3582 78.1726 14.4127C79.3064 14.4224 79.6043 14.1017 79.569 12.9923C79.4857 10.4336 79.5562 7.86849 79.537 5.30658C79.521 3.14547 78.8932 2.49137 76.8017 2.49137C52.9083 2.48496 29.018 2.48175 5.13101 2.48496C3.13241 2.48496 2.45981 3.16471 2.43739 5.18795C2.41176 7.69535 2.53027 10.2092 2.39255 12.7101C2.31248 14.1691 2.77689 14.5442 4.15093 14.4224C5.19186 14.3326 6.51144 14.0055 6.7997 15.6664C6.47301 17.0644 5.32958 16.9554 4.36232 16.824C2.69682 16.5963 2.38614 17.2472 2.39255 18.8183C2.4534 34.8888 2.43098 50.9592 2.43098 67.0297C2.43098 70.1239 2.82173 70.5086 5.96375 70.5086C28.0476 70.5086 50.1314 70.5086 72.2152 70.5054C72.8013 70.5054 73.3843 70.4637 73.9704 70.4413C74.7135 70.4637 75.4565 70.5054 76.2028 70.5086C79.1014 70.5118 79.553 70.0661 79.5562 67.1772C79.5594 62.5888 79.569 58.0037 79.5466 53.4153C79.5402 52.447 79.6331 51.5973 80.7028 51.2286Z" fill="#0D0E0F"/>
<path d="M74.6106 16.9395C76.196 16.8337 78.1626 16.263 79.2451 17.1287C80.2156 17.9046 79.5302 19.9279 79.5366 21.3964C79.5686 29.5503 79.5526 37.7041 79.5526 45.858C79.5526 46.8135 79.4021 47.8524 80.7121 48.1473C80.7088 49.1766 80.7056 50.2026 80.7024 51.2319C79.6327 51.6006 79.5366 52.4503 79.543 53.4219C79.5654 58.0102 79.5558 62.5954 79.5526 67.1837C79.5494 70.0695 79.101 70.5184 76.1992 70.5152C75.4561 70.5152 74.7099 70.4735 73.9668 70.4478C74.5209 69.6142 74.6234 68.6907 74.6234 67.7032C74.6074 50.7798 74.6106 33.8596 74.6106 16.9395Z" fill="#BEDEFA"/>
<path d="M74.6104 16.9394C74.6104 33.8596 74.6072 50.7797 74.6232 67.6999C74.6232 68.6875 74.5207 69.6109 73.9666 70.4446C73.3805 70.467 72.7976 70.5087 72.2114 70.5087C50.1276 70.5119 28.0438 70.5119 5.95997 70.5119C2.81795 70.5119 2.4272 70.1303 2.4272 67.033C2.4272 50.9625 2.44962 34.892 2.38877 18.8216C2.38236 17.2505 2.69304 16.5964 4.35854 16.8272C5.3258 16.9587 6.46923 17.0709 6.79592 15.6697C7.83045 15.6697 8.86498 15.6697 9.89631 15.6665C10.239 16.8913 11.2159 16.8593 12.2056 16.8593C18.5537 16.8497 24.9018 16.8561 31.2467 16.8561C45.1151 16.8561 58.9836 16.8561 72.852 16.8593C73.4445 16.8593 74.0275 16.9106 74.6104 16.9394ZM59.8836 30.8295C59.922 30.0247 59.5729 29.3803 59.0348 28.8288C58.2181 27.9887 57.3885 27.155 56.5462 26.3406C55.0152 24.856 53.8237 24.8111 52.2575 26.2797C51.7002 26.8023 51.3223 26.8985 50.6241 26.5169C49.5095 25.9077 48.3276 25.3947 47.1233 24.9939C46.1913 24.6829 45.6212 24.4232 45.6404 23.2079C45.666 21.5214 44.5802 20.6011 42.8827 20.537C41.6048 20.4889 40.3236 20.4985 39.0425 20.537C37.7453 20.5755 36.4994 21.1751 36.4962 22.4737C36.4898 24.5162 35.2983 24.9683 33.7513 25.3723C32.9922 25.5711 32.2428 25.9334 31.5862 26.3695C30.7887 26.8953 30.2762 26.8568 29.5652 26.1386C28.2744 24.8368 26.9644 24.8977 25.6288 26.1514C24.6968 27.0268 23.7936 27.9374 22.9128 28.8672C22.0128 29.8195 21.574 31.1598 22.506 32.0352C23.9858 33.4171 23.4477 34.5265 22.6854 35.8668C22.2946 36.553 21.9936 37.3193 21.8206 38.0888C21.6028 39.0475 21.2473 39.4868 20.1455 39.474C18.5216 39.4548 17.5159 40.4487 17.4199 42.0167C17.3302 43.4531 17.3398 44.9024 17.4263 46.3389C17.4935 47.49 18.1149 48.6603 19.2647 48.6315C21.4106 48.5737 21.8334 49.9076 22.285 51.4819C22.5028 52.2386 22.8615 52.9825 23.2875 53.6463C23.784 54.4158 23.6751 54.8967 23.0281 55.5509C21.8014 56.7853 21.7309 58.0583 22.7783 59.2382C23.768 60.354 24.8409 61.3993 25.9427 62.4093C26.8171 63.2077 28.1014 63.5155 28.8541 62.6819C30.2666 61.114 31.4549 61.8097 32.8289 62.5216C33.5784 62.9095 34.3919 63.2141 35.2118 63.4097C36.035 63.6053 36.2784 63.9933 36.3104 64.8366C36.3873 66.8534 37.3097 67.6935 39.3307 67.748C40.5574 67.78 41.7841 67.78 43.0108 67.7352C44.2407 67.6903 45.4578 67.1259 45.461 65.8979C45.4674 63.8009 46.7262 63.3135 48.3116 62.8679C49.0707 62.6562 49.8073 62.2907 50.4799 61.8707C51.2486 61.3897 51.7323 61.4891 52.3856 62.14C53.6123 63.3648 54.8999 63.4322 56.0754 62.3837C57.19 61.3929 58.2309 60.3124 59.2366 59.2094C60.0341 58.334 60.3352 57.0514 59.4992 56.2947C57.9362 54.8807 58.6152 53.6943 59.3519 52.322C59.7266 51.6262 60.0053 50.8567 60.191 50.0872C60.4088 49.1733 60.806 48.8174 61.8149 48.8078C63.5092 48.7918 64.4573 47.8812 64.5598 46.2972C64.6527 44.8639 64.6366 43.4146 64.5566 41.9782C64.4925 40.8239 63.8583 39.6119 62.7309 39.6824C60.4024 39.8235 60.2039 38.1946 59.6594 36.7037C59.4031 36.0079 59.1085 35.3089 58.7145 34.6868C58.2405 33.943 58.1764 33.3818 58.9451 32.7887C59.5537 32.3109 59.8804 31.6279 59.8836 30.8295Z" fill="#E6F1FD"/>
<path d="M9.90355 15.6695C8.86902 15.6695 7.83449 15.6695 6.80317 15.6727C6.51171 14.0118 5.19532 14.3357 4.15439 14.4287C2.78036 14.5473 2.31274 14.1722 2.39601 12.7165C2.53053 10.2091 2.41203 7.69524 2.43765 5.18784C2.46007 3.1646 3.13267 2.48484 5.13127 2.48484C29.0215 2.48164 52.9086 2.48485 76.7988 2.49446C78.8903 2.49446 79.518 3.14857 79.534 5.30968C79.5533 7.87159 79.4828 10.4367 79.5661 12.9954C79.6013 14.1048 79.3034 14.4255 78.1696 14.4158C71.9304 14.3613 65.6912 14.3966 59.452 14.3966C43.6683 14.3966 27.8845 14.3998 12.1007 14.387C11.0822 14.3838 10.147 14.3998 9.90355 15.6695ZM28.6468 9.61266C34.934 9.61266 41.2213 9.61266 47.5117 9.61266C47.9377 9.61266 48.3637 9.62228 48.7897 9.59663C49.5455 9.55174 49.9811 9.14773 49.9715 8.3782C49.9619 7.6792 49.5391 7.32009 48.8601 7.26879C48.543 7.24314 48.2227 7.24634 47.9025 7.24634C35.1678 7.24634 22.43 7.24634 9.69536 7.24634C9.48077 7.24634 9.26938 7.25275 9.05479 7.24634C8.19642 7.22069 7.52381 7.51889 7.54944 8.47118C7.57186 9.30805 8.174 9.64473 8.98433 9.61266C9.35586 9.59663 9.7306 9.61266 10.1021 9.61266C16.2837 9.61266 22.4652 9.61266 28.6468 9.61266ZM70.1688 12.5177C72.4141 12.4952 74.2333 10.6836 74.2493 8.45515C74.2685 6.18503 72.3564 4.30928 70.0567 4.33494C67.8211 4.36379 65.9955 6.18502 65.9827 8.40706C65.9699 10.6964 67.85 12.5433 70.1688 12.5177ZM58.4623 12.5209C60.7268 12.5048 62.4916 10.7349 62.5076 8.47118C62.5236 6.12731 60.7172 4.3157 58.3823 4.33494C56.1114 4.35417 54.3531 6.11769 54.3306 8.39103C54.3114 10.7253 56.1242 12.5401 58.4623 12.5209Z" fill="#BEDEFA"/>
<path d="M59.888 30.8293C59.8816 31.6277 59.5549 32.3107 58.9464 32.7788C58.1777 33.372 58.2418 33.9299 58.7158 34.677C59.1129 35.2991 59.4076 35.9981 59.6606 36.6938C60.2051 38.1848 60.4069 39.8137 62.7322 39.6726C63.8596 39.602 64.4938 40.8141 64.5578 41.9684C64.6379 43.4048 64.6539 44.8541 64.561 46.2874C64.4585 47.8745 63.5105 48.7819 61.8162 48.798C60.8073 48.8076 60.4101 49.1667 60.1923 50.0773C60.0097 50.8469 59.7279 51.6164 59.3532 52.3122C58.6165 53.6845 57.9343 54.8709 59.5005 56.2849C60.3364 57.0416 60.0354 58.321 59.2379 59.1995C58.2321 60.3025 57.1912 61.3831 56.0766 62.3739C54.898 63.4223 53.6104 63.355 52.3869 62.1302C51.7335 61.4793 51.2499 61.3799 50.4812 61.8608C49.8118 62.2809 49.0719 62.6432 48.3128 62.858C46.7274 63.3037 45.4687 63.7943 45.4623 65.8881C45.4591 67.1161 44.242 67.6836 43.0121 67.7253C41.7886 67.7702 40.5587 67.7702 39.332 67.7382C37.311 67.6836 36.3885 66.8436 36.3117 64.8267C36.2796 63.9803 36.0394 63.5955 35.2131 63.3999C34.3932 63.2043 33.5796 62.8997 32.8301 62.5117C31.4561 61.7999 30.2646 61.1041 28.8554 62.6721C28.1027 63.5089 26.8152 63.1979 25.944 62.3995C24.8422 61.3927 23.7692 60.3442 22.7795 59.2284C21.7322 58.0484 21.8027 56.7755 23.0294 55.541C23.6795 54.8869 23.7852 54.4092 23.2888 53.6364C22.8596 52.9727 22.5009 52.2288 22.2863 51.4721C21.8379 49.8978 21.4151 48.5639 19.266 48.6216C18.1193 48.6537 17.498 47.4802 17.4275 46.3291C17.341 44.8926 17.3346 43.4433 17.4211 42.0068C17.5172 40.4389 18.5229 39.4449 20.1468 39.4642C21.2486 39.477 21.6073 39.0377 21.8219 38.079C21.9948 37.3095 22.2991 36.5431 22.6866 35.857C23.4489 34.5167 23.987 33.4073 22.5073 32.0253C21.572 31.1532 22.014 29.8097 22.914 28.8574C23.7948 27.9276 24.698 27.0169 25.6301 26.1416C26.9657 24.8879 28.2757 24.8302 29.5664 26.1288C30.2775 26.8438 30.7867 26.8855 31.5874 26.3596C32.2472 25.9268 32.9935 25.5612 33.7526 25.3624C35.3028 24.9584 36.4942 24.5063 36.4974 22.4639C36.5006 21.1653 37.7466 20.5657 39.0437 20.5272C40.3217 20.4887 41.606 20.4791 42.884 20.5272C44.5815 20.5913 45.6673 21.5116 45.6416 23.1981C45.6224 24.4133 46.1925 24.6731 47.1246 24.9841C48.3289 25.3849 49.5107 25.8979 50.6253 26.5071C51.3235 26.8887 51.7015 26.7925 52.2588 26.2698C53.825 24.8013 55.0165 24.8494 56.5474 26.3308C57.3898 27.1484 58.2193 27.9789 59.0361 28.8189C59.5742 29.3801 59.9265 30.0277 59.888 30.8293ZM27.2988 60.931C27.965 60.3378 28.2468 60.1037 28.5095 59.8536C29.5088 58.9013 30.6298 58.6288 31.8629 59.3406C33.3971 60.2256 35.0145 60.8893 36.7152 61.3574C37.7978 61.6556 38.7138 62.4187 38.6274 63.4544C38.448 65.5931 39.7227 65.4071 41.0679 65.3366C41.4395 65.3173 41.8206 65.2949 42.1857 65.3398C43.0249 65.4456 43.31 65.1089 43.2651 64.2688C43.1882 62.8228 43.832 61.7807 45.2605 61.3671C47.0093 60.8636 48.6716 60.1743 50.2538 59.2733C51.1698 58.7506 52.2748 58.6897 52.9314 59.4689C54.2734 61.0592 55.0901 60.1582 55.9965 59.0937C56.2047 58.85 56.4225 58.6096 56.6756 58.4172C57.4282 57.8432 57.5307 57.343 56.7428 56.6504C55.7051 55.7398 55.4424 54.5727 56.1503 53.3318C57.0535 51.7479 57.7261 50.0741 58.2289 48.3266C58.5428 47.2429 59.3243 46.4252 60.3909 46.5022C62.114 46.624 62.3254 45.7936 62.1461 44.4405C62.0916 44.0205 62.0948 43.5812 62.1461 43.1611C62.2614 42.2313 61.9987 41.8273 60.9514 41.869C59.603 41.9203 58.6005 41.2758 58.2033 39.8938C57.7037 38.1463 57.0279 36.4758 56.1118 34.8951C55.5866 33.9908 55.5097 32.8782 56.2912 32.2113C57.8606 30.8742 57.0055 30.0438 55.9229 29.1332C55.6795 28.9279 55.436 28.7067 55.2439 28.4534C54.6738 27.7063 54.1741 27.5877 53.4791 28.3829C52.5663 29.4249 51.3908 29.6558 50.1577 28.96C48.5691 28.0622 46.9036 27.3857 45.1516 26.8919C44.1299 26.6033 43.2747 25.8402 43.358 24.8751C43.5406 22.7492 42.2722 22.9128 40.9174 22.9897C40.5459 23.0089 40.1647 23.0314 39.7996 22.9865C38.9669 22.8839 38.669 23.2045 38.7138 24.0542C38.7875 25.4234 38.1982 26.4686 36.8433 26.8791C35.0497 27.4209 33.3362 28.1103 31.6963 29.0273C30.7291 29.5692 29.592 29.5468 28.8874 28.7067C27.8144 27.4274 27.1002 27.8987 26.2963 28.8927C26.0304 29.2229 25.7198 29.5308 25.3931 29.7969C24.6532 30.3997 24.4098 30.9095 25.2874 31.6855C26.3187 32.5961 26.5141 33.7921 25.7998 35.0201C24.9094 36.5528 24.2561 38.1784 23.782 39.8778C23.4585 41.0449 22.6482 41.8658 21.5208 41.8112C19.8905 41.7311 19.6663 42.491 19.8329 43.7864C19.8809 44.1551 19.8809 44.5399 19.8329 44.9054C19.6856 46.0052 19.945 46.5663 21.2518 46.4669C22.4945 46.3707 23.3817 47.1018 23.7404 48.3138C24.2721 50.1126 24.9735 51.8248 25.8927 53.4633C26.4436 54.4444 26.3892 55.5699 25.5532 56.2689C24.2689 57.3462 24.7973 58.01 25.7262 58.8789C26.3443 59.4496 26.7703 60.2224 27.2988 60.931Z" fill="#060809"/>
<path d="M28.6469 9.61263C22.4653 9.61263 16.2838 9.61263 10.1022 9.61263C9.73069 9.61263 9.35596 9.5998 8.98442 9.61263C8.17089 9.64469 7.57196 9.31123 7.54954 8.47115C7.52391 7.51885 8.19652 7.21745 9.05489 7.24631C9.26628 7.25272 9.48087 7.24631 9.69546 7.24631C22.4301 7.24631 35.1679 7.24631 47.9026 7.24631C48.2228 7.24631 48.5431 7.2431 48.8602 7.26876C49.5392 7.32006 49.962 7.67917 49.9716 8.37817C49.9812 9.1477 49.5488 9.55171 48.7898 9.5966C48.3638 9.62225 47.9378 9.61263 47.5118 9.61263C41.2214 9.61263 34.9341 9.61263 28.6469 9.61263Z" fill="#060809"/>
<path d="M70.1686 12.5178C67.8498 12.5434 65.9697 10.6965 65.9825 8.40717C65.9953 6.18513 67.8177 4.3639 70.0565 4.33504C72.3562 4.30619 74.2683 6.18514 74.2491 8.45526C74.2331 10.6837 72.4139 12.4953 70.1686 12.5178ZM70.1718 6.7174C69.2238 6.83603 68.5448 7.26248 68.4807 8.29174C68.4103 9.38832 69.0156 10.0553 70.0565 10.1033C71.0078 10.1482 71.6772 9.58712 71.7477 8.56749C71.8277 7.46769 71.1904 6.92261 70.1718 6.7174Z" fill="#060809"/>
<path d="M58.4627 12.5211C56.1246 12.5403 54.3118 10.7255 54.3342 8.39126C54.3534 6.11792 56.1118 4.35441 58.3858 4.33517C60.7207 4.31272 62.5271 6.12754 62.5111 8.47142C62.4919 10.7351 60.7271 12.5019 58.4627 12.5211ZM60.1378 8.4105C59.9777 7.41972 59.4428 6.73034 58.3826 6.75279C57.4154 6.77203 56.7876 7.39086 56.7492 8.35278C56.7043 9.40768 57.3609 10.0778 58.3826 10.1067C59.4236 10.1387 59.9905 9.45257 60.1378 8.4105Z" fill="#060809"/>
<path d="M27.2983 60.9311C26.7699 60.2225 26.3439 59.4497 25.7321 58.879C24.8001 58.01 24.2748 57.3463 25.5592 56.269C26.3951 55.5668 26.4496 54.4445 25.8987 53.4634C24.9794 51.8281 24.2748 50.1127 23.7463 48.3139C23.3876 47.1019 22.5004 46.3708 21.2577 46.467C19.9509 46.5696 19.6915 46.0085 19.8388 44.9055C19.8869 44.5368 19.8869 44.1552 19.8388 43.7865C19.6723 42.4911 19.8997 41.7312 21.5267 41.8113C22.6542 41.8658 23.4645 41.045 23.788 39.8779C24.2588 38.1753 24.9154 36.5528 25.8058 35.0202C26.52 33.7921 26.3247 32.5961 25.2933 31.6855C24.4125 30.9096 24.656 30.3998 25.399 29.797C25.7289 29.5276 26.0364 29.223 26.3022 28.8928C27.1062 27.8988 27.8204 27.4242 28.8934 28.7068C29.598 29.5469 30.735 29.5693 31.7023 29.0274C33.3422 28.1136 35.0557 27.421 36.8493 26.8791C38.2041 26.4687 38.7934 25.4234 38.7198 24.0543C38.6749 23.2046 38.9728 22.884 39.8056 22.9866C40.1739 23.0315 40.5518 23.0122 40.9234 22.9898C42.275 22.916 43.5465 22.7525 43.3639 24.8751C43.2807 25.8403 44.1358 26.6034 45.1576 26.892C46.9095 27.3858 48.5782 28.0623 50.1637 28.9601C51.3968 29.6559 52.5722 29.425 53.485 28.3829C54.1801 27.591 54.6797 27.7096 55.2498 28.4535C55.442 28.7068 55.6822 28.928 55.9288 29.1332C57.0114 30.0439 57.8666 30.8743 56.2972 32.2114C55.5157 32.8751 55.5957 33.9909 56.1178 34.8951C57.0338 36.4759 57.7096 38.1464 58.2093 39.8939C58.6064 41.2759 59.6089 41.9236 60.9573 41.869C62.0047 41.8274 62.2673 42.2314 62.152 43.1612C62.1008 43.5813 62.0976 44.0205 62.152 44.4406C62.3314 45.7937 62.12 46.6209 60.3968 46.5023C59.3303 46.4285 58.5456 47.243 58.2349 48.3267C57.7288 50.0742 57.0594 51.7479 56.1562 53.3319C55.4484 54.5728 55.711 55.7399 56.7488 56.6505C57.5367 57.3431 57.4342 57.8433 56.6815 58.4173C56.4285 58.6096 56.2107 58.8533 56.0025 59.0938C55.0961 60.1583 54.2761 61.0593 52.9373 59.4689C52.2808 58.6898 51.1758 58.7507 50.2597 59.2734C48.6775 60.1744 47.0152 60.8637 45.2665 61.3671C43.838 61.7776 43.1942 62.8228 43.2711 64.2689C43.3159 65.1122 43.0308 65.4457 42.1917 65.3399C41.8234 65.295 41.4454 65.3174 41.0739 65.3367C39.7287 65.4072 38.4539 65.5932 38.6333 63.4545C38.7198 62.4188 37.8038 61.6557 36.7212 61.3575C35.0173 60.8894 33.3998 60.2225 31.8688 59.3407C30.6357 58.6289 29.5179 58.9014 28.5154 59.8537C28.2464 60.1038 27.9645 60.3379 27.2983 60.9311ZM25.8634 44.1392C25.8602 52.5592 32.5799 59.2894 40.9874 59.2926C49.3982 59.2926 56.121 52.5688 56.121 44.1488C56.121 35.7256 49.4014 28.9954 40.9938 28.9922C32.5895 28.9922 25.8666 35.7224 25.8634 44.1392Z" fill="#28CBD9"/>
<path d="M70.1728 6.71729C71.1913 6.92249 71.8286 7.46758 71.7486 8.57058C71.6749 9.59021 71.0087 10.1513 70.0575 10.1064C69.0197 10.0583 68.4144 9.39142 68.4816 8.29483C68.5489 7.25917 69.2247 6.83272 70.1728 6.71729Z" fill="#28CBD9"/>
<path d="M60.1369 8.41032C59.9896 9.4524 59.4227 10.1386 58.3817 10.1097C57.36 10.0776 56.7034 9.41071 56.7483 8.35581C56.7899 7.39389 57.4177 6.77506 58.3817 6.75582C59.4419 6.73017 59.9768 7.41954 60.1369 8.41032Z" fill="#28CBD9"/>
<path d="M25.8633 44.1394C25.8665 35.7227 32.5893 28.9924 40.9969 28.9924C49.4044 28.9956 56.1208 35.7259 56.124 44.1491C56.124 52.5659 49.4012 59.2929 40.9905 59.2929C32.5797 59.2929 25.8601 52.5594 25.8633 44.1394ZM41.0033 31.3812C34.0178 31.378 28.2686 37.0758 28.2238 44.0529C28.1758 51.0845 33.9601 56.9233 40.9809 56.933C47.9343 56.9426 53.7155 51.1999 53.7635 44.2356C53.8084 37.1912 48.0464 31.3844 41.0033 31.3812Z" fill="#060809"/>
<path d="M41.0037 31.3811C48.0468 31.3843 53.8088 37.1911 53.7607 44.2355C53.7127 51.1998 47.9347 56.9393 40.9781 56.9329C33.9573 56.9233 28.173 51.0844 28.221 44.0528C28.269 37.0757 34.0182 31.3747 41.0037 31.3811ZM44.3154 46.0536C43.5564 43.8444 42.9062 41.9943 42.288 40.1346C42.0734 39.4869 41.7884 38.8937 41.0453 38.8616C40.2158 38.8264 39.9051 39.4356 39.6585 40.1506C39.0243 42.0167 38.3261 43.8604 37.5157 46.0888C36.7567 43.8732 36.1289 42.0295 35.4947 40.1859C35.2065 39.3522 34.7421 38.6853 33.746 39.0668C32.8556 39.4099 32.9004 40.1185 33.1855 40.9298C34.2104 43.8347 35.1905 46.7558 36.1801 49.6768C36.414 50.363 36.6798 51.001 37.5638 50.9626C38.3517 50.9273 38.5887 50.3437 38.8129 49.7121C39.4663 47.8588 40.1453 46.0183 40.9588 43.7802C41.7115 45.983 42.3201 47.7818 42.9414 49.5742C43.1656 50.2219 43.3418 50.9401 44.245 50.969C45.1386 50.9978 45.3884 50.3598 45.6254 49.68C46.6407 46.7718 47.656 43.8636 48.6842 40.9586C48.9564 40.1859 49.0493 39.426 48.1493 39.0765C47.1788 38.6981 46.6984 39.2849 46.4005 40.1666C45.7695 42.0199 45.0937 43.8604 44.3154 46.0536Z" fill="#E6F1FD"/>
<path d="M44.314 46.0533C45.0923 43.8602 45.7681 42.0165 46.3959 40.16C46.6937 39.2782 47.1742 38.6914 48.1447 39.0698C49.0447 39.4225 48.9518 40.1824 48.6795 40.952C47.6514 43.857 46.6329 46.7652 45.6208 49.6734C45.3838 50.3531 45.1339 50.9912 44.2403 50.9623C43.3371 50.9335 43.1642 50.2152 42.9368 49.5675C42.3122 47.7752 41.7069 45.9764 40.9542 43.7736C40.1439 46.0117 39.4617 47.8553 38.8083 49.7054C38.5841 50.3371 38.3471 50.9206 37.5591 50.9559C36.6752 50.9944 36.4093 50.3595 36.1755 49.6701C35.1858 46.7523 34.2057 43.8313 33.1808 40.9231C32.8958 40.1151 32.8509 39.4033 33.7413 39.0602C34.7374 38.6754 35.2018 39.3423 35.4901 40.1792C36.1243 42.0229 36.7552 43.8698 37.5111 46.0822C38.3214 43.8537 39.0165 42.0101 39.6538 40.1439C39.8972 39.4289 40.2111 38.8197 41.0407 38.855C41.7837 38.887 42.0688 39.4802 42.2834 40.1279C42.9047 41.9972 43.5549 43.8441 44.314 46.0533Z" fill="#060809"/>
</svg>
