<svg width="69" height="70" viewBox="0 0 69 70" fill="none" xmlns="http://www.w3.org/2000/svg">
<path d="M1.3355 25.2872C1.33181 23.8424 1.33181 22.3939 1.32812 20.9492C2.51568 20.7246 2.65214 19.845 2.64845 18.8382C2.6337 15.7839 2.6337 12.7297 2.64845 9.67551C2.67058 5.01932 4.96456 2.67626 9.55988 2.67251C26.2078 2.66129 42.852 2.66129 59.5 2.67251C64.0842 2.67626 66.3671 5.01932 66.3708 9.71668C66.3819 22.7458 66.3782 35.7749 66.3634 48.8039C66.3634 49.3092 66.6142 49.9081 65.9725 50.4321C62.03 45.7198 58.1206 41.0262 54.1855 36.3475C51.5448 33.2072 48.2477 33.2222 45.5886 36.3775C42.8742 39.5964 40.1487 42.8115 37.508 46.0903C36.7114 47.0822 36.3205 47.0597 35.5202 46.0791C31.6366 41.3293 27.672 36.6544 23.7442 31.9421C20.7679 28.3714 17.6109 28.3414 14.6531 31.8785C11.0794 36.1566 7.5167 40.446 3.92821 44.7129C3.60735 45.091 3.44507 45.7422 2.64476 45.6749C2.64476 42.542 2.62632 39.4317 2.65583 36.3176C2.66689 35.2434 2.54887 34.3114 1.34657 33.9595C1.34657 32.2827 1.34657 30.6021 1.34657 28.9253C3.14634 27.8249 3.14634 26.4101 1.3355 25.2872ZM31.1092 18.5387C31.1092 22.379 34.1003 25.4482 37.8584 25.4669C41.6682 25.4856 44.8215 22.2742 44.7588 18.4452C44.6961 14.6686 41.5797 11.5807 37.8621 11.6069C34.1003 11.6331 31.1092 14.706 31.1092 18.5387Z" fill="#E8E8E3"/>
<path d="M1.34673 33.9633C2.54904 34.3114 2.66706 35.2471 2.65599 36.3213C2.63018 39.4354 2.64493 42.5458 2.64493 45.6786C3.44524 45.7423 3.6112 45.0947 3.92838 44.7167C7.51686 40.4498 11.0758 36.1604 14.6533 31.8822C17.6111 28.3414 20.7681 28.3714 23.7443 31.9459C27.6684 36.6582 31.6368 41.3331 35.5203 46.0829C36.3206 47.0635 36.7116 47.086 37.5082 46.0941C40.1489 42.8116 42.8743 39.6001 45.5887 36.3812C48.2478 33.226 51.545 33.211 54.1856 36.3513C58.1208 41.0299 62.0338 45.7235 65.9727 50.4359C66.6144 49.9119 66.3599 49.313 66.3636 48.8077C66.3784 35.7786 66.3857 22.7495 66.371 9.72044C66.3673 5.02308 64.0844 2.68002 59.5001 2.67628C42.8522 2.66505 26.208 2.66505 9.56005 2.67628C4.96472 2.66879 2.67075 5.01186 2.64862 9.67178C2.63387 12.726 2.63755 15.7802 2.64862 18.8344C2.65231 19.8413 2.51216 20.7209 1.32829 20.9454C0.262441 20.7358 0.0227172 19.976 0.0264053 19.0104C0.0411575 15.5818 -0.0584202 12.1496 0.0632859 8.72857C0.251377 3.40989 3.87306 0.0337776 9.34614 0.0188059C19.7244 -0.0148803 30.1026 0.0075772 40.4808 0.0075772C46.8058 0.0075772 53.1308 -0.00739446 59.4559 0.0113201C65.4748 0.0337776 68.9748 3.54089 68.9821 9.62313C69.0043 26.5149 69.0006 43.4029 68.9821 60.2947C68.9748 66.4818 65.4895 69.9851 59.3489 69.9926C42.7674 70.0076 26.1858 70.0076 9.60431 69.9926C3.50056 69.9851 0.0411575 66.4518 0.0300934 60.2348C0.011653 52.3186 0.0337814 44.406 0.0153411 36.4898C0.0190292 35.3744 0.0337814 34.3376 1.34673 33.9633ZM49.76 67.294C49.2289 66.6165 48.9818 66.2796 48.7162 65.9615C39.7026 55.1707 30.689 44.3836 21.6717 33.5928C19.7907 31.3433 18.5036 31.3582 16.6116 33.6302C13.3624 37.534 10.305 41.6288 6.78663 45.2669C3.60014 48.5682 1.97002 52.1202 2.66706 56.7389C2.8404 57.8955 2.68919 59.1045 2.69288 60.2872C2.71132 65.037 4.89465 67.2827 9.54899 67.2865C22.3244 67.2977 35.0999 67.2902 47.8754 67.2902C48.3622 67.294 48.849 67.294 49.76 67.294ZM57.0844 67.2565C58.6261 67.2565 59.8579 67.3351 61.0786 67.2378C63.1292 67.0731 64.7261 66.0027 65.6039 64.1499C66.9943 61.208 66.2788 58.0415 66.2345 54.9611C66.2309 54.7065 65.9247 54.4371 65.7293 54.205C61.204 48.7927 56.6861 43.373 52.1388 37.9795C50.6598 36.224 49.1625 36.224 47.6836 37.9682C44.8032 41.3668 41.9818 44.8178 39.0867 48.2014C38.3786 49.0248 38.4007 49.5451 39.1088 50.376C42.9997 54.9461 46.9238 59.49 50.6303 64.2135C52.4449 66.5416 54.3036 68.1548 57.0844 67.2565Z" fill="#0B0D50"/>
<path d="M1.33471 25.2871C3.14186 26.41 3.14555 27.8248 1.34209 28.929C0.416385 28.6295 -0.0446233 28.012 0.029138 27.0014C0.0918351 26.1293 0.383192 25.4518 1.33471 25.2871Z" fill="#0B0D50"/>
<path d="M31.1094 18.5387C31.1094 14.706 34.1004 11.6331 37.8622 11.6069C41.5835 11.5807 44.6962 14.6686 44.7589 18.4452C44.8216 22.2742 41.6683 25.4856 37.8585 25.4669C34.1004 25.4444 31.1094 22.3752 31.1094 18.5387ZM37.8696 22.7982C40.2189 22.8094 42.1293 20.9305 42.1551 18.5836C42.1809 16.2518 40.2779 14.3055 37.9507 14.283C35.5867 14.2606 33.7427 16.1021 33.7205 18.505C33.6947 20.908 35.5092 22.7869 37.8696 22.7982Z" fill="#0B0D50"/>
<path d="M49.7607 67.294C48.8498 67.294 48.3629 67.294 47.8761 67.294C35.1007 67.294 22.3252 67.3015 9.54975 67.2903C4.89542 67.2865 2.71208 65.0408 2.69364 60.291C2.68995 59.1083 2.84116 57.8993 2.66783 56.7428C1.97447 52.1277 3.60091 48.572 6.78739 45.2707C10.3021 41.6326 13.3595 37.5341 16.6124 33.634C18.5044 31.362 19.7915 31.3471 21.6724 33.5966C30.6897 44.3836 39.7034 55.1745 48.717 65.9653C48.9825 66.2797 49.2296 66.6128 49.7607 67.294Z" fill="#50CC32"/>
<path d="M57.0839 67.2565C54.3031 68.1548 52.4443 66.5416 50.6224 64.2173C46.9196 59.4937 42.9918 54.9461 39.1009 50.3797C38.3928 49.5488 38.3706 49.0285 39.0787 48.2051C41.9776 44.8215 44.7952 41.3705 47.6756 37.972C49.1545 36.2278 50.6519 36.2278 52.1308 37.9832C56.6782 43.3767 61.1961 48.7965 65.7213 54.2087C65.9168 54.4445 66.2229 54.7103 66.2266 54.9648C66.2708 58.0452 66.9863 61.2117 65.5959 64.1537C64.7219 66.0064 63.1212 67.0731 61.0707 67.2416C59.8573 67.3351 58.6255 67.2565 57.0839 67.2565Z" fill="#BBE121"/>
<path d="M37.8698 22.7981C35.5094 22.7869 33.6949 20.9117 33.717 18.5013C33.7391 16.0983 35.5832 14.2568 37.9472 14.2793C40.2744 14.3017 42.1811 16.248 42.1516 18.5799C42.1295 20.9304 40.2154 22.8094 37.8698 22.7981Z" fill="#F9AF2C"/>
</svg>
