<svg width="77" height="77" viewBox="0 0 77 77" fill="none" xmlns="http://www.w3.org/2000/svg">
<path d="M63.3619 10.6564C62.2837 9.82077 61.2054 8.98208 60.1301 8.1464C60.3952 7.26262 60.1361 6.64938 59.3199 6.14136C50.5552 0.682369 41.0616 -1.25653 30.9596 0.805617C10.2495 5.03814 -2.81622 24.1266 0.517991 44.9705C4.40639 69.2805 31.0258 83.7396 53.7117 73.8617C69.7081 66.8967 78.9426 50.679 76.6566 33.265C75.5271 24.6646 71.7381 17.2968 65.5757 11.1555C64.9191 10.5031 64.2836 10.0192 63.3619 10.6564Z" fill="#F7F9FA"/>
<path d="M60.1301 8.1464C61.2084 8.98208 62.2867 9.82077 63.365 10.6565C62.6843 11.7386 63.38 12.3939 64.0788 13.1004C74.7983 23.9402 77.6686 39.8392 71.2623 53.5919C67.7021 61.2333 62.1602 67.05 54.4707 70.7113C53.9738 70.0951 53.4166 70.6181 52.9678 70.7264C47.715 71.9949 42.4561 72.2414 37.107 71.2945C27.7368 69.6352 20.0835 65.0479 14.2886 57.638C8.22253 49.8854 5.5118 41.0296 6.54188 31.1006C7.1021 25.7047 8.57493 20.6726 11.3489 16.0042C11.7405 15.3459 12.4091 14.7597 12.2977 13.8609C18.9902 6.62834 27.3634 2.95795 37.131 2.51005C44.4711 2.17337 51.3052 4.04314 57.561 7.92395C58.4043 8.447 59.1965 8.96705 60.1301 8.1464ZM18.8065 56.8414C19.46 57.5298 20.1166 58.2152 20.7702 58.9036C20.2853 59.9617 20.8576 60.5539 21.6648 61.1341C29.1886 66.5239 37.4142 67.9518 46.3385 65.562C60.332 61.8134 69.4732 46.4555 66.0546 32.4233C62.1361 16.3469 46.7783 7.19649 30.803 11.426C11.4543 16.5453 3.73476 41.0146 16.6228 56.3334C17.2704 57.1029 17.9089 57.4066 18.8065 56.8414Z" fill="#3BCCE3"/>
<path d="M54.4677 70.7112C62.1571 67.0498 67.6991 61.2331 71.2592 53.5917C77.6686 39.842 74.7952 23.94 64.0757 13.1002C63.377 12.3938 62.6812 11.7385 63.3619 10.6563C64.2806 10.019 64.9191 10.503 65.5727 11.1553C71.7351 17.2967 75.5271 24.6645 76.6536 33.2648C78.9366 50.6759 69.702 66.8965 53.7087 73.8615C31.0258 83.7364 4.40639 69.2803 0.517991 44.9704C-2.81622 24.1264 10.2495 5.03799 30.9596 0.80547C41.0616 -1.25969 50.5582 0.682222 59.3199 6.14121C60.1361 6.64923 60.3952 7.26247 60.1301 8.14625C59.1964 8.96389 58.4043 8.44385 57.5639 7.9238C51.3082 4.04299 44.4741 2.17322 37.134 2.5099C27.3633 2.9578 18.9932 6.62819 12.2946 13.8608C12.1049 14.0171 11.888 14.1493 11.7284 14.3327C3.45462 23.8799 0.505943 34.846 3.47269 47.1347C7.20448 62.5828 20.6046 73.6 36.4865 74.4898C42.7904 74.8415 48.8444 73.7233 54.4677 70.7112Z" fill="#040607"/>
<path d="M20.7694 58.9007C20.1158 58.2124 19.4592 57.527 18.8056 56.8386C19.3839 55.8466 18.7875 55.1552 18.2213 54.4247C11.2998 45.4968 10.8119 33.713 16.9623 24.2981C22.947 15.1356 34.2598 10.84 45.1208 13.6086C55.0511 16.1397 62.9153 25.0917 64.0749 35.183C65.3309 46.119 59.9696 56.5861 50.458 61.2875C41.0246 65.9499 31.8804 65.2585 23.203 59.2344C22.4199 58.6933 21.694 58.2124 20.7694 58.9007ZM55.274 38.144C53.741 34.669 52.3464 31.4284 51.47 28.0106C50.8766 25.6989 51.9097 23.9915 54.1415 23.1738C56.0692 22.4674 56.2318 21.7039 54.7018 20.3812C48.8646 15.325 42.0908 13.2779 34.4797 14.5464C27.233 15.7549 21.6157 19.5996 17.7002 25.8402C16.7906 27.2921 17.2484 28.0887 18.9712 28.1488C19.673 28.1729 20.3868 28.233 21.0766 28.1368C22.1789 27.9835 22.6337 28.4915 23.0163 29.4625C25.3866 35.4505 27.5793 41.5258 30.3262 47.3365C32.037 50.9587 32.1996 54.1872 30.2991 57.6021C30.1214 57.9238 30.2148 58.519 29.7118 58.522C29.1907 58.525 28.8142 58.1552 28.6365 57.6292C28.5251 57.2985 28.3865 56.9769 28.254 56.6522C24.8445 48.2323 21.438 39.8093 18.0255 31.3894C17.7303 30.6589 17.5526 29.7541 16.4954 29.8112C15.4352 29.8683 15.3629 30.8092 15.1401 31.5517C14.0287 35.2581 13.8118 39.0217 14.5075 42.8274C17.0948 56.9799 31.1394 65.6914 45.2172 61.8797C58.6745 58.2364 66.2375 43.2813 61.316 30.0276C61.0479 29.3032 60.9124 28.3532 59.8763 28.3352C58.7498 28.3172 58.6353 29.3242 58.3372 30.0968C57.3402 32.703 56.3553 35.3062 55.274 38.144Z" fill="#DDDDDD"/>
<path d="M20.77 58.9005C21.6947 58.2122 22.4206 58.6931 23.2037 59.2372C31.878 65.2613 41.0253 65.9527 50.4586 61.2904C59.9703 56.5889 65.3315 46.1188 64.0756 35.1858C62.916 25.0915 55.0548 16.1425 45.1215 13.6114C34.2635 10.8428 22.9476 15.1385 16.9629 24.3009C10.8126 33.7159 11.3005 45.4996 18.2219 54.4275C18.7882 55.158 19.3845 55.8494 18.8062 56.8414C17.9057 57.4065 17.2671 57.1059 16.6196 56.3364C3.73455 41.0145 11.4541 16.5453 30.8058 11.423C46.7811 7.19347 62.1389 16.3409 66.0574 32.4202C69.476 46.4525 60.3347 61.8104 46.3413 65.5589C37.417 67.9488 29.1914 66.5209 21.6676 61.131C20.8574 60.5509 20.2881 59.9587 20.77 58.9005Z" fill="#040607"/>
<path d="M54.4674 70.7114C48.8442 73.7234 42.7902 74.8417 36.4892 74.49C20.6073 73.6002 7.20724 62.583 3.47546 47.1349C0.508711 34.8462 3.45438 23.8831 11.7312 14.3329C11.8908 14.1495 12.1077 14.0172 12.2974 13.8609C12.4119 14.7597 11.7402 15.3459 11.3486 16.0042C8.57466 20.6726 7.10183 25.7048 6.54161 31.1006C5.51153 41.0326 8.22227 49.8855 14.2883 57.6381C20.0863 65.048 27.7396 69.6352 37.1067 71.2946C42.4559 72.2415 47.7147 71.995 52.9675 70.7264C53.4133 70.6182 53.9705 70.0951 54.4674 70.7114Z" fill="#2DBFD6"/>
<path d="M55.2756 38.1439C56.3569 35.3062 57.3418 32.6999 58.3417 30.1027C58.6369 29.3331 58.7544 28.3231 59.8808 28.3411C60.9169 28.3592 61.0525 29.3091 61.3205 30.0335C66.242 43.2872 58.6791 58.2423 45.2217 61.8857C31.144 65.6973 17.0994 56.9858 14.5121 42.8333C13.8164 39.0277 14.0332 35.2641 15.1446 31.5576C15.3675 30.8151 15.4398 29.8742 16.5 29.8171C17.5572 29.76 17.7349 30.6648 18.03 31.3953C21.4395 39.8152 24.8491 48.2382 28.2586 56.6581C28.3911 56.9828 28.5296 57.3044 28.6411 57.6351C28.8188 58.1612 29.1953 58.5309 29.7163 58.5279C30.2163 58.5249 30.1229 57.9297 30.3037 57.6081C32.2012 54.1932 32.0415 50.9647 30.3308 47.3424C27.5839 41.5287 25.3912 35.4535 23.0208 29.4684C22.6353 28.4975 22.1805 27.9924 21.0811 28.1427C20.3914 28.2389 19.6776 28.1788 18.9758 28.1548C17.253 28.0946 16.7952 27.298 17.7048 25.8461C21.6173 19.6056 27.2345 15.7608 34.4842 14.5494C42.0954 13.2808 48.8692 15.3279 54.7063 20.3841C56.2334 21.7068 56.0737 22.4733 54.1461 23.1767C51.9143 23.9944 50.8812 25.7018 51.4745 28.0135C52.348 31.4284 53.7425 34.6689 55.2756 38.1439ZM23.7497 52.594L23.7738 52.615C23.7889 52.4797 23.8611 52.3204 23.816 52.2092C21.8943 47.4897 19.9637 42.7732 18.0331 38.0567C17.8403 37.0948 17.4277 36.232 16.9066 35.2881C15.1537 42.8213 19.8191 52.5158 24.9093 55.2904C24.8611 54.3675 24.4455 53.6521 24.0599 52.9246C24.0117 52.7623 24.072 52.4978 23.7497 52.594ZM52.1492 53.5409C51.842 54.3555 51.5348 55.1701 51.1432 56.2132C59.0917 51.1541 62.0825 39.9625 59.6158 33.5206C59.2875 34.4374 58.9923 35.2761 58.6941 36.1118C56.5105 41.9195 54.3298 47.7302 52.1492 53.5409ZM32.7222 58.3235C32.0837 59.1021 32.165 59.568 33.2433 59.8025C36.5625 60.5329 39.8635 60.6291 43.2098 59.9167C44.4296 59.6552 44.4567 59.1802 43.8634 58.3175C41.9659 53.5469 40.0683 48.7733 38.0353 43.66C36.1799 48.7733 34.4511 53.5469 32.7222 58.3235ZM50.842 22.287C52.2155 21.6286 51.9504 21.1176 50.827 20.3571C43.011 15.0694 32.409 15.3941 25.0027 21.2318C23.4124 22.4854 21.9094 23.8321 20.7589 25.774C21.2709 25.774 21.563 25.789 21.8552 25.771C22.1022 25.7559 22.3461 25.7048 22.5901 25.6688C23.6383 25.7139 24.6894 25.7409 25.7376 25.8131C26.2918 25.8521 26.6713 26.1678 26.7586 26.7389C26.8399 27.283 26.6954 27.8722 26.1502 27.9594C24.8099 28.1788 25.3641 28.9123 25.6291 29.5676C28.0387 35.5406 30.4512 41.5106 32.8849 47.4747C33.0505 47.8835 33.0837 48.4125 33.6168 48.6891C34.5324 46.2572 35.3968 43.8644 36.3396 41.5016C36.6438 40.7411 36.5956 40.0978 36.2884 39.3673C34.927 36.0937 33.5957 32.8111 32.2825 29.5195C31.9783 28.756 31.7614 28.0526 30.6832 28.1007C29.9964 28.1337 29.5838 27.5866 29.6109 26.9042C29.638 26.2159 30.0988 25.783 30.7886 25.78C35.0474 25.7589 39.3093 25.7589 43.5682 25.78C44.2278 25.783 44.7368 26.1227 44.8001 26.8471C44.8603 27.5596 44.4718 28.0526 43.7881 28.0946C42.5833 28.1668 42.9086 28.75 43.1947 29.4504C45.6916 35.6038 48.1674 41.7632 50.6703 47.9135C50.7818 48.1841 50.7276 48.6681 51.3058 48.653C52.0287 46.7622 52.7124 44.8353 53.5046 42.9536C53.9413 41.9135 53.9172 41.0207 53.4443 39.9746C51.8751 36.5206 50.4264 33.0155 49.324 29.3752C48.5138 26.6968 48.9053 24.3401 50.842 22.287ZM37.3365 28.1608C36.9871 28.1608 36.6347 28.1608 36.2854 28.1608C34.3487 28.1608 34.3517 28.1608 35.0685 29.9343C38.7883 39.1299 42.502 48.3254 46.2338 57.5149C46.4024 57.9327 46.3422 58.6271 46.9897 58.6391C47.7186 58.6542 47.9265 58.0259 48.1253 57.4367C48.5439 56.2102 48.9294 54.9687 49.4415 53.7814C49.824 52.8946 49.7788 52.1431 49.4113 51.2442C46.6133 44.4205 43.8754 37.5697 41.1165 30.7279C40.0834 28.1578 40.0804 28.1608 37.3365 28.1608Z" fill="#040607"/>
<path d="M50.8418 22.2867C48.9051 24.3399 48.5135 26.6966 49.3207 29.363C50.4231 33.0033 51.8718 36.5084 53.441 39.9623C53.9169 41.0084 53.941 41.9012 53.5013 42.9413C52.7092 44.8231 52.0254 46.75 51.3026 48.6408C50.7243 48.6558 50.7755 48.1719 50.6671 47.9013C48.1641 41.7509 45.6883 35.5885 43.1914 29.4381C42.9083 28.7377 42.58 28.1546 43.7848 28.0824C44.4685 28.0433 44.8601 27.5473 44.7968 26.8349C44.7336 26.1104 44.2245 25.7708 43.5649 25.7678C39.3061 25.7497 35.0442 25.7497 30.7853 25.7678C30.0956 25.7708 29.6348 26.2036 29.6076 26.892C29.5805 27.5744 29.9932 28.1215 30.6799 28.0884C31.7582 28.0373 31.975 28.7437 32.2792 29.5073C33.5954 32.7989 34.9237 36.0845 36.2851 39.3551C36.5893 40.0886 36.6375 40.7289 36.3363 41.4894C35.3936 43.8522 34.5261 46.245 33.6135 48.6769C33.0774 48.4003 33.0473 47.8713 32.8816 47.4624C30.448 41.4984 28.0354 35.5284 25.6259 29.5554C25.3608 28.9031 24.8066 28.1696 26.1469 27.9471C26.6951 27.857 26.8367 27.2678 26.7553 26.7267C26.668 26.1525 26.2885 25.8369 25.7343 25.8008C24.6861 25.7287 23.638 25.7016 22.5898 25.6565C22.6742 25.4822 22.7224 25.2718 22.8459 25.1335C28.2944 19.0643 35.1044 16.954 43.0228 18.4661C45.9142 19.0252 48.6641 20.1434 50.8418 22.2867Z" fill="#3BCCE3"/>
<path d="M37.3365 28.1605C40.0804 28.1605 40.0834 28.1605 41.1195 30.7277C43.8785 37.5695 46.6163 44.4203 49.4144 51.244C49.7848 52.1428 49.827 52.8943 49.4445 53.7811C48.9325 54.9685 48.5469 56.21 48.1283 57.4365C47.9265 58.0226 47.7217 58.6539 46.9928 58.6389C46.3452 58.6269 46.4055 57.9295 46.2368 57.5146C42.505 48.3251 38.7913 39.1296 35.0716 29.9341C34.3547 28.1605 34.3517 28.1635 36.2884 28.1605C36.6348 28.1605 36.9872 28.1605 37.3365 28.1605Z" fill="#DDDDDD"/>
<path d="M32.7207 58.3233C34.4496 53.5497 36.1784 48.7761 38.0307 43.6598C40.0638 48.7731 41.9613 53.5437 43.8588 58.3173C40.1451 59.3424 36.4344 59.1199 32.7207 58.3233Z" fill="#3BCCE3"/>
<path d="M50.841 22.2869C48.6633 20.1436 45.9135 19.0253 43.022 18.4752C35.1036 16.9632 28.2907 19.0734 22.8451 25.1426C22.7216 25.2809 22.6734 25.4883 22.5891 25.6657C22.3451 25.7017 22.1011 25.7529 21.8542 25.7679C21.565 25.7859 21.2729 25.7709 20.7578 25.7709C21.9084 23.829 23.4143 22.4823 25.0016 21.2287C32.408 15.394 43.01 15.0693 50.8259 20.354C51.9494 21.1145 52.2144 21.6285 50.841 22.2869Z" fill="#0F9BB1"/>
<path d="M52.1484 53.5408C54.3291 47.7301 56.5097 41.9194 58.6904 36.1087C58.7777 36.28 58.9313 36.4454 58.9434 36.6227C59.1572 39.9294 58.9524 43.206 57.5789 46.2601C56.32 49.0678 54.8983 51.8153 52.1484 53.5408Z" fill="#3BCCE3"/>
<path d="M52.1486 53.541C54.8985 51.8155 56.3201 49.068 57.5821 46.2604C58.9555 43.2062 59.1603 39.9296 58.9465 36.623C58.9344 36.4486 58.7808 36.2803 58.6935 36.1089C58.9917 35.2732 59.2898 34.4345 59.6151 33.5177C62.0789 39.9597 59.0911 51.1512 51.1426 56.2104C51.5341 55.1703 51.8413 54.3556 52.1486 53.541Z" fill="#0F9BB1"/>
<path d="M24.0586 52.9247C24.4442 53.6522 24.8598 54.3676 24.908 55.2905C19.8178 52.5189 15.1524 42.8214 16.9053 35.2882C17.4264 36.2321 17.842 37.0948 18.0318 38.0568C17.9745 39.5959 17.9625 41.126 18.3149 42.644C19.2004 46.4827 20.7094 49.9698 23.7755 52.6151L23.7514 52.594C23.8508 52.7053 23.9562 52.8165 24.0586 52.9247Z" fill="#0F9BB1"/>
<path d="M23.7739 52.6151C20.7077 49.9697 19.1987 46.4827 18.3132 42.644C17.9639 41.1259 17.9729 39.5959 18.0301 38.0568C19.9608 42.7733 21.8914 47.4898 23.813 52.2093C23.8612 52.3235 23.7919 52.4798 23.7739 52.6151Z" fill="#3BCCE3"/>
<path d="M32.7218 58.3235C36.4356 59.1201 40.1463 59.3456 43.86 58.3175C44.4533 59.1802 44.4262 59.6552 43.2064 59.9167C39.8631 60.6292 36.559 60.533 33.2399 59.8025C32.1646 59.565 32.0833 59.0991 32.7218 58.3235Z" fill="#0F9BB1"/>
<path d="M24.0583 52.9245C23.9559 52.8133 23.8505 52.7051 23.748 52.5939C24.0703 52.4977 24.0101 52.7622 24.0583 52.9245Z" fill="#3BCCE3"/>
</svg>
