<svg width="70" height="70" viewBox="0 0 70 70" fill="none" xmlns="http://www.w3.org/2000/svg">
<path d="M26.2963 59.5208C27.2383 59.5121 28.1803 59.5033 29.1252 59.4946C29.0289 60.3929 29.3585 60.8187 30.3267 60.667C30.802 60.5941 31.2978 60.6262 31.7819 60.6612C32.8318 60.7312 34.1762 60.2062 34.8382 60.9003C35.331 61.4166 35.0132 62.7407 34.9928 63.7031C34.9723 64.7823 35.404 65.3247 36.5326 65.3247C47.1683 65.3131 57.8012 65.3131 68.4369 65.3247C69.5538 65.3247 70.003 64.8085 69.9942 63.7206C69.9709 60.9033 69.965 58.0859 69.9971 55.2714C70.0117 54.0756 69.4664 53.6206 68.3115 53.6469C66.5646 53.6877 64.8119 53.5915 63.068 53.6819C62.0385 53.7373 61.7877 53.4369 61.7994 52.4161C61.8548 47.1722 61.8519 41.9253 61.8023 36.6814C61.7936 35.7626 62.0998 35.1618 62.7297 34.5494C64.7857 32.5544 66.8329 30.5479 68.7956 28.4625C70.455 26.7009 70.3792 24.1169 68.7577 22.4019C67.18 20.7366 64.6924 20.547 62.8026 21.9295C62.5168 22.1395 62.3622 22.574 61.8256 22.539C61.8256 19.5671 61.7965 16.6155 61.8431 13.664C61.8577 12.7715 61.6069 12.1211 60.9624 11.4853C57.3929 7.9738 53.8583 4.43311 50.3442 0.877841C49.7609 0.285782 49.1689 -0.00295571 48.3144 -3.91625e-05C36.6113 0.0262097 24.9082 0.011627 13.2051 0.0203767C10.1196 0.0232932 8.18902 1.93655 8.18611 5.00475C8.17444 15.7843 8.19485 26.5668 8.15694 37.3463C8.15403 38.3117 8.44857 38.6384 9.34388 38.545C9.33513 39.875 9.32638 41.2078 9.31472 42.5378C7.03708 40.2979 4.75653 38.0609 2.4789 35.821C1.9948 35.3456 1.5486 34.7535 0.746619 35.1064C-0.029117 35.4447 0.0146275 36.1505 0.0146275 36.8447C0.0204601 47.2772 0.0350416 57.7096 4.60091e-05 68.1421C-0.00578659 69.545 0.542478 70.0058 1.90439 70C12.2893 69.9679 22.6714 69.9796 33.0563 69.9854C33.7942 69.9854 34.5728 70.067 34.914 69.2125C35.2348 68.4134 34.6195 67.9671 34.1441 67.4888C31.5282 64.8318 28.9123 62.1749 26.2963 59.5208Z" fill="#F7F9FA"/>
<path d="M9.31445 42.5378C9.3232 41.2079 9.33195 39.875 9.34362 38.5451C10.4285 38.6792 10.5364 38.0959 10.5335 37.1714C10.5014 26.5318 10.5101 15.8952 10.516 5.25561C10.516 3.17028 11.3384 2.35657 13.4294 2.35074C17.5588 2.34199 21.6883 2.34782 25.8149 2.34782C32.7119 2.34782 39.6119 2.37698 46.509 2.31865C47.6317 2.3099 47.9088 2.63364 47.8505 3.7011C47.7601 5.34894 47.8242 7.00262 47.8271 8.65339C47.833 12.0278 49.3874 13.7253 52.779 14.0607C53.0648 15.1865 54.0564 15.1019 54.8554 15.1485C56.3777 15.236 57.9117 15.1777 59.4399 15.1777C59.4369 17.6043 59.4369 20.0308 59.434 22.4574C58.355 22.924 57.5209 23.7319 56.7102 24.5311C53.7793 27.4126 50.8922 30.3379 47.9788 33.2369C47.6113 33.6015 47.3197 34.0973 46.7073 34.1207C46.6927 30.3875 46.6431 26.6514 46.6869 22.9182C46.6985 21.842 46.3427 21.2237 45.3512 20.8008C42.2366 19.465 39.1424 18.0797 36.0569 16.6768C35.3395 16.3502 34.7125 16.3327 33.9864 16.6651C30.9009 18.068 27.8067 19.4504 24.6921 20.7891C23.721 21.2062 23.304 21.7837 23.3215 22.8832C23.3827 26.666 23.3885 30.4516 23.3185 34.2344C23.2981 35.401 23.756 35.9872 24.7738 36.4218C27.8009 37.7138 30.8134 39.0467 33.7997 40.4291C34.6804 40.8375 35.4095 40.7966 36.2727 40.4C38.6466 39.315 41.0613 38.3117 43.4585 37.2793C43.4556 37.3259 43.4673 37.3872 43.4439 37.4222C41.4259 40.1754 38.7954 42.2782 36.1299 44.3461C33.8522 44.3023 33.8551 44.3023 33.8347 46.5306C33.8318 46.866 33.8026 47.1984 33.7851 47.5338C33.1815 47.5718 32.884 48.0647 32.5166 48.4292C30.0144 50.917 27.5268 53.4194 25.0217 55.9072C24.6221 56.3039 24.3042 56.8493 23.6335 56.8668C18.772 52.1741 13.9893 47.4084 9.31445 42.5378ZM36.1648 11.045C36.1648 10.3654 36.1211 9.68293 36.1736 9.00921C36.264 7.90675 35.4795 8.22466 34.9108 8.18091C34.2955 8.13424 33.7676 8.11383 33.8143 9.03254C33.8814 10.3887 33.8639 11.7508 33.8201 13.107C33.7968 13.7953 34.0214 13.9965 34.7184 14.0344C35.7857 14.0927 36.3748 13.8711 36.1794 12.6432C36.0949 12.1241 36.1648 11.5787 36.1648 11.045ZM50.7084 21.9237C51.8954 21.3549 53.0152 20.7775 54.1672 20.2787C54.9371 19.9433 55.3279 19.6663 54.8642 18.6892C54.3917 17.6947 53.9135 17.7151 53.0969 18.1613C52.1229 18.6921 51.0963 19.1325 50.0931 19.6138C49.7169 19.7946 49.3815 20.025 49.6819 20.4916C49.9939 20.9845 49.9881 21.7312 50.7084 21.9237ZM20.4051 20.1796C20.3789 19.745 19.9881 19.6925 19.7052 19.5525C18.7516 19.08 17.7746 18.6542 16.8327 18.1613C16.1065 17.7793 15.6195 17.5955 15.1529 18.6046C14.7009 19.5875 14.9575 19.9638 15.8499 20.3137C16.7481 20.6666 17.5968 21.145 18.4746 21.5533C19.4078 21.9907 20.4868 21.2208 20.4051 20.1796ZM20.4022 37.9997C20.4401 37.0255 19.4224 36.3314 18.4425 36.7922C17.5676 37.2034 16.7219 37.6934 15.8207 38.0317C14.8671 38.3905 14.7592 38.828 15.1675 39.7583C15.6312 40.8141 16.1678 40.505 16.8589 40.155C17.8096 39.6767 18.7837 39.2421 19.7344 38.7667C20.0144 38.6267 20.4139 38.5713 20.4022 37.9997ZM14.1147 6.96763C15.2579 7.39344 15.1383 6.58848 15.1996 5.79226C15.2666 4.8823 14.9517 4.64606 14.0622 4.65189C13.164 4.65772 12.7878 4.8298 12.8111 5.83601C12.8315 6.77222 13.0473 7.21553 14.1147 6.96763ZM19.819 6.011C19.9269 5.1827 19.9152 4.5119 18.7691 4.66356C18.1159 4.75105 17.3459 4.50315 17.4947 5.6406C17.5822 6.31724 17.2585 7.18345 18.5066 7.02304C19.1949 6.93846 20.1194 7.25928 19.819 6.011ZM23.4323 4.71897C22.6478 4.55856 22.0149 4.61981 22.1578 5.75143C22.2424 6.40473 21.9975 7.1747 23.1348 7.02596C23.8114 6.93846 24.6775 7.2622 24.5171 6.01392C24.4296 5.32853 24.7504 4.40398 23.4323 4.71897Z" fill="#348ED7"/>
<path d="M59.4317 22.4603C59.4346 20.0338 59.4346 17.6072 59.4375 15.1806C59.6154 14.3611 59.4492 13.9382 58.4459 13.9878C56.5591 14.0811 54.6664 14.0461 52.7767 14.0636C49.3879 13.7282 47.8306 12.0308 47.8248 8.65633C47.8219 7.00556 47.7577 5.34897 47.8481 3.70403C47.9064 2.63658 47.6294 2.31284 46.5066 2.32159C39.6096 2.37992 32.7125 2.35076 25.8125 2.35076C21.683 2.35076 17.5536 2.34492 13.427 2.35367C11.336 2.35659 10.5165 3.17322 10.5136 5.25855C10.5078 15.8981 10.499 26.5347 10.5311 37.1743C10.534 38.0959 10.4261 38.6822 9.34125 38.548C8.44595 38.6413 8.1514 38.3147 8.15432 37.3493C8.19515 26.5697 8.17182 15.7873 8.18348 5.00773C8.18931 1.93661 10.1199 0.0233542 13.2054 0.0204377C24.9085 0.0116881 36.6116 0.0262708 48.3118 2.18726e-05C49.1663 -0.00289467 49.7583 0.285843 50.3415 0.877902C53.8586 4.43317 57.3902 7.97677 60.954 11.4854C61.5985 12.1212 61.8464 12.7716 61.8347 13.664C61.7909 16.6156 61.8172 19.57 61.8172 22.5391C62.3538 22.5741 62.5054 22.1395 62.7942 21.9295C64.6839 20.55 67.1715 20.7367 68.7492 22.402C70.3736 24.1169 70.4494 26.701 68.7872 28.4626C66.8245 30.5479 64.7743 32.5545 62.7212 34.5494C62.0913 35.1619 61.7851 35.7627 61.7939 36.6814C61.8434 41.9254 61.8493 47.1722 61.7909 52.4162C61.7793 53.4399 62.0301 53.7374 63.0595 53.6819C64.8035 53.5886 66.5562 53.6849 68.3031 53.6469C69.4579 53.6207 70.0033 54.0757 69.9887 55.2715C69.9566 58.0888 69.9624 60.9033 69.9858 63.7207C69.9945 64.8086 69.5483 65.3248 68.4284 65.3248C57.7927 65.3131 47.1599 65.3131 36.5241 65.3248C35.3955 65.3248 34.9639 64.7823 34.9843 63.7032C35.0047 62.7407 35.3197 61.4166 34.8297 60.9004C34.1677 60.2033 32.8233 60.7312 31.7734 60.6612C31.2893 60.6292 30.7936 60.5942 30.3182 60.6671C29.35 60.8158 29.0205 60.3929 29.1167 59.4946C29.0175 58.5701 29.3996 58.1997 30.3503 58.3076C31.021 58.3863 31.7093 58.3222 32.3888 58.3222C34.9843 58.3222 34.9843 58.3222 34.993 55.7789C35.0018 53.8132 35.1564 53.6586 37.1919 53.6586C44.1357 53.6557 51.0794 53.6236 58.0231 53.6907C59.2771 53.7024 59.5308 53.3261 59.5075 52.1478C59.4317 48.1668 59.4783 44.1857 59.4783 40.2017C59.4783 39.5075 59.4783 38.8134 59.4783 37.7926C55.9146 41.3625 52.5638 44.594 49.3646 47.9743C47.9268 49.4938 46.3725 50.4883 44.2844 50.6954C43.3249 50.7917 42.383 51.0746 41.4293 51.2408C40.0878 51.4741 39.4958 50.8704 39.7437 49.5171C39.9916 48.1813 40.3182 46.8631 40.5311 45.5244C40.7207 44.3286 41.2339 43.3953 42.1088 42.532C47.3611 37.3464 52.5084 32.0528 57.8189 26.9314C59.2158 25.5956 59.7554 24.2569 59.4317 22.4603ZM52.4734 62.9828C57.1307 62.9828 61.788 62.9595 66.4454 63.0032C67.3757 63.012 67.7198 62.7903 67.6644 61.8104C67.5798 60.3113 67.6294 58.8034 67.6469 57.2985C67.6556 56.5402 67.7548 55.9102 66.5795 55.9481C65.5792 55.9831 65.1272 56.2018 65.3168 57.2372C65.4888 58.1763 65.0368 58.3455 64.1823 58.3543C63.2695 58.363 62.8 58.1559 62.975 57.1643C63.147 56.1989 62.7154 55.9802 61.7851 55.9539C60.744 55.9248 60.5165 56.3564 60.6565 57.2226C60.8052 58.1384 60.4145 58.363 59.5337 58.3543C58.6443 58.3455 58.131 58.1938 58.3118 57.1789C58.478 56.2368 58.0931 55.9685 57.1365 55.9539C56.1217 55.9394 55.8475 56.3185 55.9904 57.211C56.1333 58.1005 55.7921 58.3805 54.8822 58.3572C54.019 58.3338 53.462 58.2376 53.6457 57.1935C53.8061 56.2806 53.4795 55.9481 52.4909 55.951C51.5197 55.9539 51.1581 56.2543 51.3243 57.1818C51.5081 58.2084 50.9773 58.3368 50.0995 58.3513C49.2013 58.3659 48.8396 58.1122 48.9855 57.211C49.1284 56.3302 48.8746 55.9248 47.8481 55.9481C46.9178 55.9714 46.4862 56.1931 46.6583 57.1585C46.8332 58.1472 46.3666 58.3543 45.4538 58.3484C44.5935 58.3426 44.1707 58.1618 44.3194 57.2256C44.4564 56.3768 44.2581 55.9423 43.2024 55.9394C42.1147 55.9364 41.8405 56.3331 41.9922 57.2839C42.1263 58.1122 41.756 58.2901 40.954 58.3513C39.7904 58.4388 39.4812 57.978 39.6591 56.9514C39.8545 55.8314 39.0817 56.0181 38.411 55.9685C37.6411 55.9131 37.2678 56.0793 37.3086 56.9747C37.3815 58.5234 37.3961 60.0838 37.3057 61.6295C37.2415 62.697 37.5244 63.0236 38.6443 63.0061C43.2549 62.9449 47.8656 62.9857 52.4734 62.9828ZM46.3929 47.563C47.0345 46.9593 47.3552 46.6735 47.6585 46.3702C52.6688 41.3625 57.679 36.3548 62.6862 31.3441C64.8793 29.1509 64.8443 29.1859 62.7096 26.981C61.9776 26.2256 61.5985 26.3043 60.9015 27.0101C55.7163 32.2541 50.4903 37.4572 45.273 42.672C43.6166 44.3286 43.6311 44.314 45.2613 45.9969C45.6959 46.4402 45.9992 47.006 46.3929 47.563ZM50.1491 4.34276C50.1491 6.07227 50.0791 7.84844 50.1753 9.61587C50.2366 10.7446 51.0035 11.5612 52.1147 11.64C53.9198 11.7654 55.7367 11.675 57.4952 11.675C55.0455 9.22797 52.6338 6.82182 50.1491 4.34276ZM67.6469 25.3827C67.5886 24.5894 67.1978 23.9624 66.4512 23.5832C65.4392 23.0699 64.4973 23.3295 63.8644 24.1578C63.2316 24.9861 64.3544 25.1873 64.6548 25.6831C64.8501 26.0039 65.1564 26.2781 65.4655 26.4998C65.8592 26.7797 66.0604 27.5847 66.6758 27.2581C67.3319 26.9081 67.6381 26.2052 67.6469 25.3827ZM42.6104 46.7872C42.8058 47.496 41.9659 47.9509 42.4996 48.3972C42.9254 48.753 43.4912 48.3593 44.0569 48.298C43.777 47.6505 43.3308 47.3122 42.6104 46.7872Z" fill="#010101"/>
<path d="M59.4304 22.4602C59.7512 24.2568 59.2117 25.5955 57.8294 26.9284C52.5188 32.0498 47.3715 37.3463 42.1192 42.529C41.2414 43.3952 40.7311 44.3285 40.5415 45.5213C40.3286 46.86 40.002 48.1812 39.7541 49.5141C39.5033 50.8674 40.0983 51.4711 41.4398 51.2378C42.3934 51.0715 43.3353 50.7886 44.2948 50.6924C46.3829 50.4853 47.9373 49.4907 49.375 47.9712C52.5742 44.5939 55.925 41.3594 59.4887 37.7896C59.4887 38.8104 59.4887 39.5045 59.4887 40.1986C59.4887 44.1797 59.4421 48.1637 59.5179 52.1448C59.5412 53.3202 59.2875 53.6993 58.0335 53.6877C51.0898 53.6206 44.1461 53.6556 37.2024 53.6556C35.1668 53.6556 35.0093 53.8102 35.0035 55.7759C34.9947 58.3191 34.9947 58.3191 32.3992 58.3191C31.7197 58.3191 31.0315 58.3804 30.3607 58.3046C29.4129 58.1937 29.028 58.567 29.1271 59.4916C28.1852 59.5003 27.2432 59.5091 26.2983 59.5178C25.3155 58.7245 24.4348 57.8321 23.6328 56.8609C24.3036 56.8434 24.6214 56.298 25.021 55.9013C27.5261 53.4135 30.0137 50.9111 32.5159 48.4233C32.8833 48.0587 33.1779 47.5658 33.7845 47.5279C33.802 48.1054 33.8836 48.6858 33.8253 49.2545C33.7232 50.2636 34.3677 50.1557 35.0064 50.1616C35.6567 50.1645 36.2371 50.2432 36.1875 49.2458C36.1058 47.6154 36.1437 45.9763 36.1321 44.3401C38.7976 42.2723 41.4281 40.1695 43.4462 37.4162C43.4695 37.3842 43.4578 37.3229 43.4607 37.2733C44.0119 36.9992 44.5398 36.6579 45.1172 36.4684C46.2808 36.0834 46.8378 35.3455 46.7095 34.1176C47.3219 34.0972 47.6136 33.6014 47.981 33.2339C50.8944 30.3349 53.7815 27.4096 56.7124 24.528C57.5202 23.7347 58.3514 22.9269 59.4304 22.4602Z" fill="#2F84CB"/>
<path d="M23.6308 56.8639C24.4328 57.8351 25.3135 58.7275 26.2963 59.5208C28.9123 62.1778 31.5282 64.8348 34.1441 67.4888C34.6166 67.9701 35.2319 68.4134 34.914 69.2125C34.5728 70.0671 33.7912 69.9854 33.0563 69.9854C22.6714 69.9796 12.2893 69.9679 1.90439 70C0.542478 70.0058 -0.00578659 69.545 4.60091e-05 68.1421C0.0350416 57.7097 0.0204601 47.2772 0.0146275 36.8447C0.0146275 36.1505 -0.029117 35.4447 0.746619 35.1064C1.5486 34.7564 1.99771 35.3485 2.4789 35.821C4.75653 38.0609 7.03708 40.3008 9.31472 42.5378C13.9895 47.4084 18.7723 52.174 23.6308 56.8639ZM30.5687 67.6434C21.1345 58.2055 11.7527 48.8171 2.40308 39.4637C2.42641 39.4083 2.35933 39.49 2.35933 39.5687C2.3535 48.6013 2.371 57.6309 2.32434 66.6634C2.31851 67.7601 2.89302 67.6551 3.59293 67.6551C9.46636 67.6463 15.3427 67.6463 21.2161 67.6434C24.3628 67.6434 27.5037 67.6434 30.5687 67.6434Z" fill="#010101"/>
<path d="M46.7058 34.1236C46.8341 35.3544 46.28 36.0923 45.1135 36.4743C44.5361 36.6639 44.0082 37.0051 43.457 37.2793C41.0598 38.3147 38.6451 39.315 36.2713 40.4C35.4081 40.7967 34.679 40.8375 33.7983 40.4292C30.812 39.0467 27.7994 37.7139 24.7723 36.4218C23.7516 35.9873 23.2966 35.401 23.3171 34.2344C23.3871 30.4517 23.3812 26.666 23.32 22.8832C23.3025 21.7837 23.7166 21.2062 24.6906 20.7891C27.8053 19.4505 30.8994 18.0709 33.9849 16.6652C34.7111 16.3356 35.3381 16.3502 36.0555 16.6768C39.1409 18.0768 42.2351 19.465 45.3497 20.8008C46.3413 21.2266 46.6971 21.842 46.6854 22.9182C46.6416 26.6514 46.6912 30.3875 46.7058 34.1236ZM33.8332 32.6682C33.8332 31.2654 33.807 29.8596 33.8449 28.4567C33.8624 27.8472 33.6816 27.4972 33.0925 27.2464C30.914 26.3189 28.753 25.3535 26.5979 24.3707C25.9213 24.0615 25.653 24.1373 25.6618 24.9511C25.688 27.8064 25.688 30.6617 25.6589 33.5199C25.653 34.1148 25.9242 34.3657 26.4171 34.5786C28.5897 35.5206 30.7565 36.4743 32.9088 37.4601C33.5883 37.7693 33.8653 37.6934 33.842 36.8797C33.807 35.4769 33.8332 34.074 33.8332 32.6682ZM36.2654 32.5866C36.2334 32.5866 36.2013 32.5866 36.1692 32.5866C36.1692 34.039 36.1896 35.4915 36.1605 36.9439C36.1459 37.6555 36.3996 37.7868 37.0179 37.5068C39.2634 36.4918 41.509 35.4769 43.7691 34.4969C44.2007 34.3103 44.3349 34.0507 44.3349 33.6161C44.3261 30.7112 44.3174 27.8093 44.3407 24.9044C44.3465 24.1928 44.1074 24.0557 43.4891 24.3473C42.5705 24.779 41.6344 25.1698 40.7128 25.5956C39.2284 26.281 37.1695 26.6106 36.4317 27.7743C35.688 28.9409 36.2654 30.9446 36.2654 32.5866ZM27.3999 22.1745C29.9429 23.3061 32.1039 24.2657 34.2619 25.231C34.6207 25.3915 34.9823 25.5519 35.3731 25.3798C37.6857 24.359 39.9925 23.3324 42.5967 22.1774C40.0216 21.0225 37.7878 20.0192 35.551 19.0217C35.2331 18.8788 34.9006 18.838 34.5652 18.9867C32.2905 19.9988 30.0129 21.0108 27.3999 22.1745Z" fill="#010101"/>
<path d="M36.1639 11.0449C36.1639 11.5787 36.094 12.124 36.1785 12.6432C36.3768 13.8711 35.7848 14.0927 34.7175 14.0344C34.0205 13.9965 33.7959 13.7952 33.8192 13.1069C33.863 11.7507 33.8834 10.3887 33.8134 9.03251C33.7667 8.1138 34.2975 8.13421 34.9099 8.18088C35.4757 8.22462 36.2602 7.90672 36.1727 9.00918C36.1202 9.6829 36.1639 10.3654 36.1639 11.0449Z" fill="#010101"/>
<path d="M36.1269 44.3461C36.1386 45.9823 36.1007 47.6185 36.1823 49.2517C36.2319 50.2492 35.6516 50.1704 35.0012 50.1675C34.3626 50.1646 33.7151 50.2696 33.8201 49.2605C33.8785 48.6917 33.7968 48.1084 33.7793 47.5339C33.7968 47.1985 33.826 46.866 33.8289 46.5306C33.8522 44.3023 33.8493 44.3023 36.1269 44.3461Z" fill="#010101"/>
<path d="M50.7085 21.9237C49.9881 21.7312 49.994 20.9846 49.6819 20.4946C49.3815 20.0279 49.7198 19.7946 50.0931 19.6167C51.0963 19.1355 52.1199 18.6951 53.0969 18.1643C53.9164 17.718 54.3917 17.6976 54.8642 18.6921C55.3279 19.6692 54.9371 19.9463 54.1672 20.2817C53.0123 20.7804 51.8954 21.355 50.7085 21.9237Z" fill="#010101"/>
<path d="M20.4058 20.1796C20.4875 21.2179 19.4114 21.9908 18.4752 21.5562C17.5974 21.1479 16.7488 20.6696 15.8506 20.3167C14.9582 19.9667 14.6986 19.5905 15.1536 18.6076C15.6173 17.5985 16.1043 17.7822 16.8334 18.1643C17.7753 18.6572 18.7523 19.083 19.7059 19.5555C19.9888 19.6955 20.3796 19.748 20.4058 20.1796Z" fill="#010101"/>
<path d="M20.403 37.9997C20.4147 38.5713 20.0152 38.6268 19.7352 38.7668C18.7816 39.2422 17.8105 39.6738 16.8597 40.155C16.1686 40.5021 15.632 40.8142 15.1683 39.7584C14.76 38.828 14.8679 38.3905 15.8215 38.0318C16.7227 37.6935 17.5684 37.2035 18.4433 36.7923C19.4232 36.3314 20.441 37.0256 20.403 37.9997Z" fill="#010101"/>
<path d="M52.7754 14.0636C54.6652 14.0461 56.5578 14.0811 58.4447 13.9878C59.445 13.9382 59.6112 14.3611 59.4362 15.1807C57.9081 15.1778 56.377 15.239 54.8518 15.1515C54.0556 15.1048 53.0641 15.1894 52.7754 14.0636Z" fill="#2F84CB"/>
<path d="M14.1142 6.9677C13.0468 7.2156 12.8281 6.77521 12.8077 5.83608C12.7843 4.82695 13.1605 4.65779 14.0588 4.65196C14.9482 4.64613 15.2632 4.88237 15.1961 5.79233C15.1407 6.58563 15.2603 7.39351 14.1142 6.9677Z" fill="#010101"/>
<path d="M19.8195 6.01111C20.1199 7.25939 19.1954 6.93565 18.5072 7.02607C17.259 7.18648 17.5827 6.32026 17.4952 5.64362C17.3465 4.50617 18.1164 4.75408 18.7696 4.66658C19.9187 4.512 19.9274 5.18281 19.8195 6.01111Z" fill="#010101"/>
<path d="M23.4334 4.71906C24.7515 4.40116 24.4307 5.3257 24.5182 6.01401C24.6786 7.26229 23.8125 6.93855 23.1359 7.02605C21.9985 7.17479 22.2406 6.40774 22.1589 5.75152C22.016 4.6199 22.6489 4.56157 23.4334 4.71906Z" fill="#010101"/>
<path d="M52.4741 62.9827C47.8634 62.9856 43.2557 62.9419 38.6479 63.0148C37.528 63.0323 37.2452 62.7056 37.3093 61.6382C37.4026 60.0924 37.3851 58.5321 37.3122 56.9834C37.2714 56.0909 37.6447 55.9218 38.4146 55.9772C39.0854 56.0268 39.8582 55.8401 39.6628 56.9601C39.4849 57.9838 39.794 58.4475 40.9576 58.36C41.7596 58.2988 42.13 58.1179 41.9958 57.2925C41.8442 56.3417 42.1183 55.9451 43.2061 55.948C44.2618 55.9509 44.4572 56.3855 44.323 57.2342C44.1743 58.1704 44.5972 58.3512 45.4575 58.3571C46.3732 58.3629 46.8398 58.1558 46.6619 57.1671C46.4898 56.2018 46.9215 55.9801 47.8518 55.9568C48.8783 55.9305 49.132 56.3388 48.9891 57.2196C48.8433 58.1208 49.2049 58.3746 50.1031 58.36C50.9809 58.3454 51.5117 58.2171 51.328 57.1905C51.1618 56.263 51.5234 55.9626 52.4945 55.9597C53.4831 55.9568 53.8127 56.2893 53.6494 57.2021C53.4656 58.2433 54.0226 58.3425 54.8859 58.3658C55.7958 58.3892 56.137 58.1092 55.9941 57.2196C55.8512 56.3272 56.1253 55.948 57.1402 55.9626C58.0967 55.9772 58.4817 56.2455 58.3154 57.1875C58.1346 58.2025 58.6479 58.3571 59.5374 58.3629C60.4181 58.3717 60.8089 58.1471 60.6602 57.2313C60.5202 56.3651 60.7476 55.9334 61.7888 55.9626C62.7191 55.9888 63.1507 56.2076 62.9786 57.173C62.8036 58.1646 63.2702 58.3717 64.186 58.3629C65.0404 58.3542 65.4925 58.185 65.3204 57.2459C65.1308 56.2105 65.5829 55.9918 66.5832 55.9568C67.7584 55.9159 67.6622 56.5488 67.6505 57.3071C67.6301 58.8121 67.5835 60.3199 67.668 61.819C67.7234 62.799 67.3793 63.0206 66.449 63.0119C61.7917 62.9565 57.1314 62.9827 52.4741 62.9827Z" fill="#F88400"/>
<path d="M46.3934 47.563C45.9997 47.006 45.6934 46.4401 45.2618 45.9939C43.6316 44.314 43.617 44.3286 45.2735 42.6691C50.4878 37.4543 55.7168 32.2512 60.902 27.0072C61.5989 26.3014 61.9781 26.2256 62.7101 26.978C64.8448 29.183 64.8827 29.148 62.6867 31.3412C57.6765 36.3489 52.6692 41.3595 47.659 46.3672C47.3586 46.6735 47.0379 46.9593 46.3934 47.563Z" fill="#F88400"/>
<path d="M50.1496 4.34277C52.6343 6.82184 55.046 9.22799 57.4957 11.675C55.7401 11.675 53.9204 11.7654 52.1152 11.64C51.0011 11.5641 50.2371 10.7475 50.1758 9.61589C50.0796 7.84846 50.1496 6.07228 50.1496 4.34277Z" fill="#348ED7"/>
<path d="M67.6461 25.3827C67.6374 26.2052 67.3312 26.9081 66.675 27.2551C66.0597 27.5818 65.8584 26.7768 65.4647 26.4968C65.1556 26.2781 64.8494 26.001 64.654 25.6802C64.3507 25.1844 63.2279 24.9861 63.8637 24.1549C64.4965 23.3266 65.4385 23.067 66.4505 23.5803C67.197 23.9624 67.5878 24.5894 67.6461 25.3827Z" fill="#F05143"/>
<path d="M42.6099 46.7872C43.3303 47.3122 43.7765 47.6505 44.0564 48.298C43.4907 48.3593 42.9278 48.753 42.4991 48.3972C41.9654 47.948 42.8024 47.496 42.6099 46.7872Z" fill="#F7F9FA"/>
<path d="M30.5677 67.6434C27.5027 67.6434 24.3589 67.6434 21.218 67.6434C15.3446 67.6463 9.46824 67.6463 3.59481 67.6551C2.89489 67.6551 2.32038 67.7601 2.32622 66.6634C2.37288 57.6309 2.35538 48.6013 2.36121 39.5687C2.36121 39.49 2.42829 39.4083 2.40496 39.4637C11.7517 48.8171 21.1364 58.2055 30.5677 67.6434ZM12.7578 62.9857C12.7578 62.9886 12.7578 62.9915 12.7578 62.9915C14.1635 62.9915 15.5662 62.9798 16.9719 62.9973C17.631 63.0061 18.2551 62.9594 18.5671 62.2653C18.8908 61.5449 18.4271 61.0812 17.9722 60.6262C15.0938 57.7534 12.2154 54.8777 9.33701 52.002C8.91706 51.582 8.48253 51.1503 7.82345 51.3982C7.12645 51.6607 7.00396 52.2557 7.00688 52.9382C7.02438 55.7468 7.03313 58.5554 7.00396 61.3641C6.9923 62.5511 7.53765 63.0236 8.68667 62.9915C10.0457 62.9565 11.4017 62.9857 12.7578 62.9857Z" fill="#F05143"/>
<path d="M33.8317 32.6683C33.8317 34.0711 33.8055 35.4769 33.8434 36.8798C33.8638 37.6935 33.5868 37.7693 32.9102 37.4602C30.7579 36.4773 28.5911 35.5207 26.4185 34.5786C25.9256 34.3657 25.6544 34.1149 25.6602 33.5199C25.6894 30.6646 25.6894 27.8093 25.6632 24.9511C25.6544 24.1374 25.9256 24.0616 26.5993 24.3707C28.7544 25.3536 30.9154 26.319 33.0939 27.2464C33.683 27.4973 33.8609 27.8472 33.8463 28.4568C33.8055 29.8597 33.8317 31.2654 33.8317 32.6683Z" fill="#348ED7"/>
<path d="M36.2631 32.5866C36.2631 30.9475 35.6857 28.9409 36.4265 27.7685C37.1614 26.6047 39.2232 26.2752 40.7076 25.5898C41.6291 25.164 42.5653 24.7732 43.4839 24.3415C44.1051 24.0499 44.3413 24.1869 44.3355 24.8986C44.3151 27.8035 44.3209 30.7054 44.3296 33.6103C44.3296 34.0449 44.1984 34.3044 43.7639 34.4911C41.5037 35.474 39.2582 36.486 37.0126 37.501C36.3944 37.781 36.1407 37.6526 36.1552 36.9381C36.1844 35.4856 36.164 34.0332 36.164 32.5807C36.199 32.5866 36.2311 32.5866 36.2631 32.5866Z" fill="#348ED7"/>
<path d="M27.3984 22.1745C30.0114 21.0108 32.2891 19.9988 34.5667 18.9868C34.8992 18.838 35.2345 18.8789 35.5524 19.0218C37.7892 20.0192 40.026 21.0225 42.5982 22.1775C39.9939 23.3324 37.6842 24.362 35.3745 25.3798C34.9837 25.5519 34.6221 25.3915 34.2634 25.2311C32.1024 24.2657 29.9415 23.3062 27.3984 22.1745Z" fill="#348ED7"/>
<path d="M12.759 62.9856C11.403 62.9856 10.0469 62.9565 8.6908 62.9944C7.53886 63.0265 6.99352 62.5569 7.0081 61.367C7.03726 58.5583 7.02851 55.7497 7.01101 52.9411C7.0081 52.2586 7.13058 51.6636 7.82758 51.4011C8.48375 51.1532 8.92119 51.5849 9.34114 52.0048C12.2195 54.8806 15.0979 57.7563 17.9763 60.6291C18.4313 61.084 18.8949 61.5449 18.5712 62.2682C18.2592 62.9623 17.6351 63.009 16.976 63.0002C15.5704 62.9827 14.1676 62.9944 12.762 62.9944C12.759 62.9915 12.759 62.9886 12.759 62.9856ZM13.4006 59.4537C12.065 58.1879 10.7293 56.9251 9.33822 55.6097C9.35864 56.0851 9.37905 56.5138 9.39946 56.9396C9.38197 57.9458 9.36447 58.952 9.34989 59.9612C9.34697 60.2937 9.29156 60.6553 9.81358 60.6524C11.3592 60.6466 12.9078 60.6495 14.7655 60.6495C14.1151 60.0808 13.7593 59.7658 13.4006 59.4537Z" fill="#010101"/>
<path d="M13.4004 59.4538C13.7562 59.7658 14.1149 60.0808 14.7624 60.6495C12.9047 60.6495 11.359 60.6466 9.81047 60.6525C9.28845 60.6554 9.34386 60.2908 9.34678 59.9612C9.36136 58.955 9.37886 57.9488 9.39635 56.9397C10.1954 58.6342 11.4057 59.6667 13.4004 59.4538Z" fill="#F7F9FA"/>
<path d="M13.4003 59.4536C11.4055 59.6695 10.1953 58.6341 9.39913 56.9396C9.37872 56.5108 9.36122 56.085 9.33789 55.6096C10.729 56.925 12.0646 58.1878 13.4003 59.4536Z" fill="#348ED7"/>
</svg>
