<svg width="20" height="20" viewBox="0 0 20 20" fill="none" xmlns="http://www.w3.org/2000/svg">
<circle cx="10" cy="10" r="10" fill="#DA126A"/>
<path d="M8.13527 10.605C8.41376 10.2916 8.67987 9.98392 8.95836 9.68195C10.2208 8.30882 11.5978 7.04394 13.1759 5.97848C13.3399 5.86738 13.5101 5.76197 13.6834 5.65941C13.7391 5.62808 13.8103 5.60244 13.8752 5.60244C14.2311 5.59674 14.5869 5.59959 14.9397 5.59959C15.0511 5.59959 15.1408 5.63377 15.181 5.73348C15.2213 5.83034 15.1903 5.91296 15.1068 5.98418C13.6617 7.19778 12.4704 8.61079 11.3379 10.0694C10.2951 11.4112 9.32968 12.8014 8.42305 14.2287C8.3921 14.2799 8.35188 14.3341 8.29927 14.3654C8.18788 14.4366 8.06101 14.3967 7.97746 14.2742C7.83822 14.0691 7.70826 13.8583 7.55973 13.6589C6.69023 12.5051 5.81454 11.3514 4.94194 10.2004C4.9079 10.1577 4.87077 10.115 4.83983 10.0694C4.77794 9.97822 4.78103 9.87851 4.86149 9.80445C5.09356 9.58794 5.33182 9.37143 5.57009 9.15776C5.66291 9.07515 5.76193 9.08085 5.88571 9.15776C6.2694 9.40276 6.6531 9.65061 7.0337 9.89561C7.39883 10.1321 7.76396 10.3657 8.13527 10.605Z" fill="white"/>
</svg>
