<svg width="44" height="44" viewBox="0 0 44 44" fill="none" xmlns="http://www.w3.org/2000/svg">
<path fill-rule="evenodd" clip-rule="evenodd" d="M22 43C33.598 43 43 33.598 43 22C43 10.402 33.598 1 22 1C10.402 1 1 10.402 1 22C1 33.598 10.402 43 22 43ZM22 44C34.1503 44 44 34.1503 44 22C44 9.84974 34.1503 0 22 0C9.84974 0 0 9.84974 0 22C0 34.1503 9.84974 44 22 44Z" fill="#DA126A"/>
<path d="M11.0183 18.6453C11.2024 18.7608 11.3464 18.8455 11.4851 18.9379C14.2825 20.8027 17.0792 22.6674 19.8759 24.5329C21.3894 25.5426 22.6125 25.5411 24.1329 24.5275C26.9304 22.6628 29.7271 20.7973 32.5237 18.9326C32.6539 18.8463 32.7856 18.7631 32.9659 18.6476C32.9782 18.8039 32.9959 18.921 32.9959 19.0388C32.9974 22.1167 32.9997 25.1937 32.9959 28.2715C32.9944 29.6579 32.1625 30.4851 30.773 30.4859C24.9186 30.4875 19.0641 30.4875 13.2096 30.4859C11.8456 30.4851 11.0037 29.6541 11.0022 28.3C10.9983 25.2083 11.0006 22.1167 11.0014 19.0242C11.0022 18.9148 11.0114 18.8062 11.0183 18.6453Z" fill="#DA126A"/>
<path fill-rule="evenodd" clip-rule="evenodd" d="M11 19.8172C11 19.7661 11 19.715 11 19.6639C11 19.6638 11 19.6638 11 19.6638C11.0001 19.4506 11.0002 19.2374 11.0002 19.0242C11.0007 18.9563 11.0044 18.8888 11.0089 18.8088C11.0116 18.7599 11.0145 18.7064 11.0172 18.6453C11.0831 18.6866 11.1439 18.7241 11.2012 18.7593C11.3037 18.8225 11.3949 18.8786 11.4839 18.9379M11.6136 19.0244C11.6157 19.0258 11.6178 19.0272 11.6199 19.0286C11.7466 19.1131 11.8734 19.1976 12.0002 19.2821C12 19.6826 11.9999 20.0831 11.9998 20.4836C11.6665 20.2615 11.3333 20.0393 11 19.8172M19.3198 25.3648C16.88 23.7373 14.4401 22.1104 11.9998 20.4836C11.9997 20.6158 11.9997 20.7479 11.9996 20.8801C11.9988 23.3538 11.9979 25.8262 12.001 28.2988L12.001 28.2989C12.0015 28.7662 12.1425 29.0366 12.2971 29.1896C12.4529 29.3437 12.7308 29.4856 13.2087 29.4859L13.2085 30.4859L13.209 29.4859C13.2089 29.4859 13.2088 29.4859 13.2087 29.4859C19.063 29.4875 24.9173 29.4875 30.7716 29.4859L30.7719 30.4826L30.7713 29.4859C30.7714 29.4859 30.7715 29.4859 30.7716 29.4859C31.2678 29.4856 31.5457 29.3415 31.6982 29.1897C31.8502 29.0383 31.9942 28.7632 31.9947 28.2704L31.9947 28.2703C31.998 25.6756 31.9968 23.0814 31.9955 20.4859C32.3287 20.2637 32.6619 20.0416 32.9951 19.8194C32.9951 19.7614 32.9951 19.7034 32.995 19.6455C32.995 19.644 32.995 19.6426 32.995 19.6411C32.9949 19.4404 32.9948 19.2396 32.9947 19.0388C32.9947 18.9614 32.9871 18.8843 32.9783 18.7962C32.9738 18.7502 32.9689 18.7012 32.9647 18.6476C32.9202 18.6761 32.8787 18.7026 32.8394 18.7277C32.7195 18.8044 32.6206 18.8676 32.5226 18.9326C32.4694 18.968 32.4163 19.0034 32.3632 19.0388C32.363 19.039 32.3629 19.0391 32.3627 19.0392C32.2401 19.1209 32.1175 19.2027 31.9949 19.2844C31.995 19.5447 31.9951 19.805 31.9953 20.0653C31.9953 20.2055 31.9954 20.3457 31.9955 20.4859C31.3071 20.9449 30.6188 21.404 29.9304 21.8631C28.1826 23.0286 26.4346 24.1942 24.6865 25.3595L24.1318 24.5275L24.6864 25.3595C24.6864 25.3595 24.6864 25.3595 24.6865 25.3595C23.8268 25.9326 22.9493 26.2877 22.0019 26.2889C21.054 26.2901 20.1773 25.9368 19.3198 25.3648ZM19.3198 25.3648L19.8732 24.5351L19.3197 25.3647C19.3198 25.3647 19.3198 25.3647 19.3198 25.3648ZM11.4839 18.9379C11.5271 18.9668 11.5704 18.9956 11.6136 19.0244L11.4839 18.9379Z" fill="#DA126A"/>
<path d="M22.0007 14.0029C24.963 14.0029 27.9261 13.9983 30.8883 14.0052C32.1292 14.0083 33.0427 14.9295 32.9934 16.1149C32.9633 16.8296 32.5944 17.3418 32.0082 17.7308C29.4226 19.4476 26.8424 21.1722 24.2598 22.8944C23.8793 23.1485 23.5042 23.4112 23.1145 23.6515C22.3766 24.1075 21.6133 24.1275 20.8901 23.6492C17.8839 21.6605 14.8862 19.6594 11.8915 17.6538C11.1213 17.1377 10.8333 16.2889 11.0936 15.4378C11.3547 14.5837 12.1288 14.0068 13.07 14.0045C15.889 13.9968 18.7088 14.0014 21.5278 14.0014C21.6857 14.0029 21.8436 14.0029 22.0007 14.0029Z" fill="#DA126A"/>
<path fill-rule="evenodd" clip-rule="evenodd" d="M32.0082 17.7308C32.5944 17.3418 32.9633 16.8296 32.9934 16.1149C33.0427 14.9295 32.1292 14.0083 30.8883 14.0052C28.7724 14.0003 26.6561 14.0012 24.5399 14.0022C23.6935 14.0025 22.8471 14.0029 22.0007 14.0029C21.8436 14.0029 21.6857 14.0029 21.5278 14.0014C20.759 14.0014 19.9902 14.001 19.2213 14.0007C17.1709 13.9998 15.1202 13.9989 13.07 14.0045C12.1288 14.0068 11.3547 14.5837 11.0936 15.4378C10.8333 16.2889 11.1213 17.1377 11.8915 17.6538C14.8862 19.6594 17.8839 21.6605 20.8901 23.6492C21.6133 24.1275 22.3766 24.1075 23.1145 23.6515C23.3977 23.4769 23.6732 23.2904 23.9487 23.104C24.0523 23.0339 24.1558 22.9638 24.2598 22.8944C24.9163 22.4566 25.5726 22.0186 26.229 21.5807C28.1545 20.2959 30.0799 19.0112 32.0082 17.7308ZM21.4417 22.8151C21.6574 22.9577 21.8376 23.0016 21.9909 23.0007C22.1486 22.9998 22.3464 22.9506 22.5888 22.8008L22.5896 22.8003C22.8536 22.6375 23.1029 22.4688 23.3716 22.287C23.4787 22.2145 23.5889 22.1399 23.7043 22.0628L23.705 22.0624C24.3607 21.6251 25.0165 21.1875 25.6725 20.7499C27.5985 19.4647 29.5255 18.179 31.4551 16.8977L31.4553 16.8976C31.8444 16.6394 31.9808 16.3923 31.9942 16.0729C32.0181 15.4929 31.5978 15.0071 30.886 15.0052M21.4417 22.8151C18.4378 20.8279 15.4419 18.8281 12.4482 16.823L21.4417 22.8151ZM12.0499 15.7302L12.0499 15.7303C11.9179 16.1618 12.0459 16.5534 12.448 16.8229M13.0727 15.0045L13.0724 15.0045C12.5581 15.0057 12.1793 15.3069 12.0499 15.7302M24.5417 15.0022C23.695 15.0025 22.848 15.0029 22.0007 15.0029H21.9984C21.8444 15.0029 21.6841 15.0029 21.523 15.0014C20.7548 15.0014 19.987 15.001 19.2194 15.0007C17.1695 14.9998 15.1212 14.9989 13.0727 15.0045M24.5417 15.0022C26.6573 15.0012 28.7714 15.0003 30.8859 15.0052L24.5417 15.0022Z" fill="#DA126A"/>
</svg>
