<svg width="61" height="74" viewBox="0 0 61 74" fill="none" xmlns="http://www.w3.org/2000/svg">
<g clip-path="url(#clip0_1_2047)">
<path d="M50.9779 72.861C50.0506 72.8639 49.1233 72.8639 48.199 72.8668C47.9101 71.5949 46.8904 71.8002 46.0007 71.8002C32.7215 71.7944 19.4394 71.8002 6.16017 71.7915C3.34083 71.7886 2.21425 70.6555 2.21136 67.8574C2.20559 62.1773 2.20559 56.4943 2.21136 50.8142C2.21425 48.1375 3.38705 46.9697 6.1024 46.9581C9.90389 46.9437 13.7054 46.9668 17.5069 46.9437C18.2608 46.9379 18.8732 47.1142 19.4972 47.5796C26.0284 52.4503 34.134 52.4417 40.6538 47.5999C41.0351 47.3166 41.3701 46.9524 41.9074 46.9553C46.0902 46.9842 50.273 46.8049 54.4529 47.0477C55.4062 48.6087 55.6864 50.2939 55.6575 52.1237C55.5795 56.9626 55.5795 61.8044 55.6575 66.6404C55.6864 68.4644 55.4784 70.1583 54.4674 71.7019C53.8983 71.7308 53.3292 71.7973 52.7631 71.7828C51.9196 71.7655 51.2436 71.9592 50.9779 72.861ZM24.2577 63.2092C25.3409 63.0242 26.5397 63.0618 26.8344 64.8598C26.9413 65.5131 27.4843 65.9698 28.2383 65.6952C29.0355 65.4061 29.1135 64.8135 28.8362 64.0591C27.6114 60.7291 26.4184 57.3904 25.208 54.0546C24.977 53.4187 24.5552 52.9562 23.8388 52.9764C23.2004 52.9909 22.8018 53.3956 22.5823 53.9939C21.3315 57.4164 20.0518 60.8274 18.8328 64.2585C18.5208 65.1402 19.1476 65.912 19.9536 65.7617C20.6151 65.6403 20.8924 65.117 21.0108 64.5303C21.2304 63.4347 21.8659 63.0185 22.9549 63.1977C23.2842 63.2555 23.628 63.2092 24.2577 63.2092ZM36.237 52.9475C34.2322 52.9099 32.5539 54.1038 32.2275 55.7283C31.8635 57.532 32.5973 58.7288 34.602 59.5988C35.3935 59.9428 36.1994 60.2608 36.9851 60.6163C37.6698 60.9256 38.3399 61.3621 38.1724 62.2149C37.9962 63.1196 37.2769 63.533 36.367 63.5879C35.2404 63.6573 34.3102 63.2295 33.5043 62.4635C32.9757 61.9605 32.3517 61.8709 31.8549 62.4345C31.358 62.9982 31.5458 63.6081 32.06 64.0967C33.3483 65.3194 34.8938 65.9206 36.6587 65.7674C38.5653 65.6027 40.076 64.247 40.3302 62.6253C40.6075 60.8534 39.7496 59.4774 37.7853 58.5813C36.9563 58.2027 36.1099 57.8616 35.2664 57.5205C34.6915 57.2863 34.1889 56.9713 34.3478 56.2631C34.5009 55.5722 35.0353 55.2658 35.7228 55.1935C36.6905 55.0895 37.5022 55.4595 38.2822 55.9769C38.9003 56.3874 39.5041 56.3209 39.8969 55.6734C40.258 55.0779 39.9922 54.5634 39.4723 54.1731C38.4844 53.4303 37.3636 53.0371 36.237 52.9475ZM9.40704 59.3907C9.40704 61.0731 9.42148 62.7554 9.40126 64.4349C9.39259 65.3338 9.82878 65.7906 10.6925 65.8079C12.0848 65.8339 13.4772 65.8426 14.8695 65.8021C15.5686 65.7819 16.0943 65.4235 16.0481 64.643C16.0076 63.9608 15.5339 63.6342 14.8811 63.611C14.0665 63.5821 13.249 63.6139 12.4315 63.5908C12.1253 63.5821 11.7873 63.692 11.5966 63.2497C10.9756 61.7957 11.744 60.5614 13.2663 60.4892C14.1791 60.4458 15.6552 60.969 15.6697 59.4688C15.6841 57.8471 14.1387 58.3414 13.2056 58.3963C11.8913 58.4744 11.51 58.0726 11.5129 56.74C11.5158 55.4681 11.848 54.9941 13.1132 55.1877C13.6303 55.2658 14.1676 55.1964 14.6962 55.1993C15.4732 55.2051 16.0481 54.916 16.0394 54.0633C16.0336 53.2684 15.4299 53.0198 14.754 53.0053C13.4107 52.9793 12.0646 52.9793 10.7214 53.0024C9.7739 53.0198 9.37237 53.5372 9.39259 54.4911C9.43303 56.1214 9.40704 57.7575 9.40704 59.3907ZM47.1706 57.2863C46.5264 56.3064 46.0122 55.4392 45.4143 54.6299C44.8654 53.887 44.5015 52.4417 43.2045 53.2973C41.9883 54.1009 43.0311 55.0663 43.5742 55.7283C45.5847 58.1824 46.5582 60.891 46.0902 64.0793C45.9718 64.8887 46.1105 65.753 47.1475 65.7559C48.1874 65.7588 48.3434 64.8771 48.2307 64.0793C47.7772 60.8302 48.7969 58.0639 50.8652 55.6098C50.9865 55.4653 51.079 55.2918 51.1858 55.1328C51.6191 54.4795 51.908 53.7713 51.079 53.2684C50.2846 52.7856 49.7473 53.3002 49.3226 53.9737C48.6351 55.0577 47.9245 56.1272 47.1706 57.2863Z" fill="#F28895"/>
<path d="M50.9783 72.8611C51.244 71.9592 51.92 71.7655 52.7577 71.7858C53.3239 71.8002 53.893 71.7337 54.462 71.7048C57.4547 71.9823 58.795 70.7972 58.7979 67.8516C58.8037 62.1484 58.8066 56.4452 58.795 50.7391C58.7892 47.9757 57.2669 46.6951 54.4476 47.0507C50.2677 46.8079 46.0849 46.9871 41.9021 46.9582C41.3648 46.9553 41.0297 47.3195 40.6484 47.6028C34.1287 52.4446 26.0231 52.4504 19.4918 47.5825C18.8707 47.12 18.2584 46.9437 17.5015 46.9466C13.7 46.9697 9.89855 46.9466 6.09706 46.9611C3.38171 46.9726 2.20891 48.1404 2.20602 50.8172C2.20025 56.4972 2.20025 62.1802 2.20602 67.8603C2.20891 70.6584 3.33549 71.7944 6.15483 71.7944C19.434 71.8002 32.7161 71.7944 45.9953 71.8031C46.8851 71.8031 47.9076 71.5979 48.1936 72.8697C48.0434 73.7543 47.4743 74 46.6395 74C32.8779 73.9855 19.1163 74.0086 5.35756 73.974C2.25802 73.9595 0.0944078 71.6239 0.0279684 68.3343C-0.0269162 65.6403 0.0164138 62.9433 0.0135251 60.2464C0.0135251 57.1158 0.00197043 53.9882 0.0164138 50.8576C0.0366344 46.9264 2.17714 44.7902 6.08262 44.7844C9.48258 44.7786 12.8825 44.7844 16.3085 44.7844C12.0564 37.4711 11.2967 29.1606 8.83552 21.3935C8.1249 19.1532 8.96262 17.3177 10.5052 15.7683C12.3597 13.9068 14.4569 14.0889 16.037 16.1875C17.5968 18.2629 19.1885 20.3211 20.6328 22.4746C21.381 23.5933 21.7305 23.31 22.3689 22.4312C24.0617 20.0956 25.8469 17.8265 27.557 15.5024C28.1087 14.7537 28.6836 14.3288 29.6108 14.8C30.1394 15.5862 29.7899 16.2106 29.2931 16.861C27.4039 19.3267 25.5493 21.8184 23.663 24.287C22.2996 26.0734 21.0459 26.1312 19.3994 24.5125C17.7731 22.2665 16.1583 20.0147 14.5204 17.7802C13.4372 16.306 12.8854 16.3233 11.6809 17.812C10.8027 18.6734 10.6294 19.7198 10.9298 20.8587C12.4666 26.6515 13.9196 32.4704 15.5834 38.2256C17.7731 45.8135 25.7371 50.4761 33.0974 48.6376C36.6303 48.0797 39.493 46.2962 41.6768 43.5559C44.4557 40.0698 47.0699 36.4508 49.7217 32.8635C50.5248 31.7795 50.3399 30.4787 49.3838 29.6231C48.3612 28.7068 47.2664 28.7588 46.0993 29.7705C44.9699 31.2361 43.8375 32.6987 42.7196 34.1729C42.3267 34.6904 41.9108 35.1933 41.1915 34.9216C40.3769 34.6152 40.4375 33.9301 40.6166 33.2422C42.0061 31.4153 43.3927 29.5884 44.7821 27.7644C45.5534 26.7556 45.5967 25.689 44.7879 24.7379C43.9762 23.784 42.9334 23.3967 41.7288 24.128C40.1949 25.4375 39.2647 27.2325 38.014 28.7675C37.598 29.2791 37.1531 29.73 36.4598 29.4179C35.6857 29.071 35.7232 28.409 35.9832 27.7268C37.4016 25.8624 38.8488 24.0153 40.2324 22.1219C41.0211 21.0408 40.8275 19.7198 39.8685 18.8844C38.843 17.9912 37.728 18.0548 36.5783 19.0752C35.8475 20.0147 35.1166 20.9512 34.3858 21.8907C33.9727 22.4225 33.5741 23.0585 32.7624 22.6798C31.8871 22.2693 32.0344 21.5611 32.3666 20.85C36.0814 15.8984 39.8136 10.9583 43.5024 5.98645C44.2881 4.92848 44.0975 3.73755 43.1731 2.87903C42.2285 2.00317 41.1337 1.9945 39.9638 2.86169C39.6518 3.22012 39.3196 3.56122 39.0337 3.93989C37.0578 6.54145 35.0791 9.14012 33.1292 11.7619C32.5833 12.4961 32.0286 12.9789 31.0985 12.4239C30.6565 11.7706 30.7952 11.2069 31.2631 10.5941C33.5134 7.65434 35.703 4.67122 37.9735 1.74591C39.5392 -0.271751 42.2372 -0.569485 44.2708 0.948093C46.2871 2.45411 46.7839 5.1684 45.3107 7.21786C43.2078 10.1403 41.0239 13.002 38.7881 16.0054C41.4197 16.7714 42.9825 18.3352 42.916 21.1391C42.9045 21.6363 43.2482 21.59 43.5804 21.6768C46.0502 22.3156 47.2375 23.5904 47.5206 26.004C47.5899 26.5879 47.7228 26.7672 48.3265 26.877C52.1395 27.5736 53.5896 31.2794 51.2874 34.4042C48.7887 37.7949 46.2553 41.1625 43.5631 44.7786C46.5904 44.7786 49.352 44.7786 52.1135 44.7786C53.3643 44.7786 54.6151 44.744 55.8659 44.7931C58.4137 44.8972 60.5831 46.7992 60.8604 49.34C61.0482 51.0542 60.9875 52.7972 60.9933 54.5287C61.0077 58.9572 61.0078 63.3856 60.9962 67.8111C60.9846 71.8378 58.8557 73.9682 54.8693 73.9768C54.1009 73.9797 53.3268 73.9422 52.5613 73.9855C51.6947 74.0433 51.1834 73.682 50.9783 72.8611Z" fill="#0A0808"/>
<path d="M19.4001 24.5182C21.0466 26.137 22.3003 26.0792 23.6637 24.2928C25.5472 21.8242 27.4046 19.3325 29.2938 16.8668C29.7906 16.2164 30.143 15.592 29.6115 14.8058C30.1084 14.0137 30.6023 13.2246 31.0992 12.4325C32.0293 12.9875 32.584 12.5019 33.1299 11.7706C35.0798 9.1488 37.0585 6.55013 39.0344 3.94856C39.3203 3.57278 39.6525 3.2288 39.9645 2.87036C40.5625 3.11896 40.5538 3.63927 40.626 4.1827C40.9293 6.46919 39.173 7.73528 38.0869 9.29044C35.9753 12.3111 33.6845 15.2047 31.5238 18.1907C30.6774 19.3585 31.0241 20.2806 32.3673 20.8587C32.038 21.5698 31.8878 22.2751 32.7631 22.6885C33.5748 23.07 33.9734 22.4341 34.3865 21.8993C35.1144 20.9599 35.8482 20.0233 36.579 19.0839C37.3098 19.2255 37.33 19.8152 37.4398 20.3875C37.7287 21.8647 36.7552 22.8041 35.9984 23.8187C34.5309 25.7872 34.5107 25.8595 35.9839 27.7326C35.7268 28.4148 35.6864 29.0739 36.4605 29.4236C37.1538 29.7358 37.5987 29.2849 38.0147 28.7732C39.2654 27.2383 40.1956 25.4432 41.7295 24.1338C41.8364 24.7437 41.9548 25.3507 42.053 25.9607C42.3361 27.7211 40.99 28.7357 40.1869 29.9902C39.1672 31.58 39.199 32.0021 40.6145 33.245C40.4354 33.933 40.3747 34.6181 41.1893 34.9245C41.9086 35.1933 42.3245 34.6932 42.7174 34.1758C43.8353 32.7016 44.9706 31.239 46.0971 29.7734C47.2151 30.6001 47.3306 32.1004 46.3716 33.3867C44.6846 35.65 43.0294 37.9365 41.2962 40.1623C39.511 42.4546 38.0869 45.0561 35.6199 46.7761C34.7649 47.3715 33.7741 47.7993 33.0981 48.6405C25.7378 50.4761 17.7738 45.8135 15.5841 38.2285C13.9232 32.4704 12.4673 26.6544 10.9305 20.8616C10.6272 19.7227 10.8034 18.6763 11.6816 17.8149C12.5019 19.3845 13.7412 20.6737 14.654 22.1768C15.7546 23.9922 17.2047 24.9836 19.4001 24.5182Z" fill="#FDDDCD"/>
<path d="M25.095 7.05595C25.0545 7.9983 24.1764 8.4897 23.4311 7.93181C22.1716 6.98658 21.0046 5.91705 19.8203 4.87064C19.4101 4.50931 19.4043 4.01502 19.6932 3.56408C19.9907 3.10158 20.5135 2.90502 20.9411 3.17963C22.4287 4.13642 23.7344 5.32736 24.9794 6.579C25.095 6.69463 25.0719 6.94322 25.095 7.05595Z" fill="#0A0808"/>
<path d="M19.2784 11.84C18.4551 11.9353 17.6318 11.8775 17.5452 10.8514C17.4614 9.89167 18.2558 9.71823 19.0068 9.64886C20.0554 9.55347 21.1098 9.47831 22.1613 9.41183C22.8863 9.36558 23.4323 9.68644 23.4698 10.4264C23.5074 11.1549 23.0192 11.5278 22.2855 11.5827C21.2802 11.6578 20.2807 11.7561 19.2784 11.84Z" fill="#0A0808"/>
<path d="M28.1708 4.14512C28.2401 4.93715 28.3037 5.82457 27.2724 5.95176C26.1199 6.0934 26.0419 5.13082 25.9668 4.30699C25.8743 3.30394 25.8079 2.3009 25.753 1.29496C25.7183 0.647459 25.9812 0.127147 26.6687 0.0490997C27.4169 -0.0347284 27.8242 0.413318 27.9022 1.13887C28.0062 2.13902 28.0842 3.14207 28.1708 4.14512Z" fill="#0A0808"/>
<path d="M54.4473 47.0507C57.2666 46.6952 58.7918 47.9786 58.7947 50.7392C58.8034 56.4424 58.8005 62.1456 58.7976 67.8517C58.7947 70.7972 57.4544 71.9853 54.4617 71.7049C55.4727 70.1613 55.6807 68.4674 55.6518 66.6434C55.5738 61.8045 55.5738 56.9627 55.6518 52.1267C55.6807 50.2969 55.4034 48.6117 54.4473 47.0507Z" fill="#E96F7E"/>
<path d="M24.2585 63.2092C23.6288 63.2092 23.285 63.2554 22.9557 63.2005C21.8667 63.0213 21.2312 63.4346 21.0117 64.5331C20.8932 65.1199 20.6188 65.6431 19.9544 65.7645C19.1485 65.9119 18.5216 65.143 18.8336 64.2613C20.0526 60.8302 21.3323 57.4163 22.5831 53.9967C22.8026 53.3984 23.1984 52.9937 23.8397 52.9792C24.5532 52.9619 24.9778 53.4215 25.2089 54.0574C26.4192 57.3932 27.6123 60.7319 28.8371 64.0619C29.1144 64.8163 29.0364 65.4089 28.2391 65.698C27.4852 65.9726 26.9421 65.5159 26.8352 64.8626C26.5406 63.0617 25.3418 63.0242 24.2585 63.2092ZM23.8945 56.8585C23.2908 58.4541 22.7217 59.619 22.4733 60.9198C23.467 60.9198 24.351 60.9198 25.3678 60.9198C24.894 59.619 24.4607 58.4252 23.8945 56.8585Z" fill="#0A0808"/>
<path d="M36.2381 52.9476C37.3647 53.0372 38.4826 53.4304 39.4705 54.1704C39.9905 54.5577 40.2562 55.0751 39.8951 55.6706C39.5023 56.3181 38.8957 56.3846 38.2804 55.9741C37.5004 55.4538 36.6887 55.0867 35.721 55.1908C35.0335 55.263 34.4991 55.5723 34.346 56.2603C34.1871 56.9685 34.6898 57.2836 35.2646 57.5177C36.1081 57.8588 36.9545 58.2028 37.7835 58.5786C39.7507 59.4747 40.6058 60.8535 40.3284 62.6226C40.0742 64.2471 38.5635 65.5999 36.6569 65.7647C34.892 65.9179 33.3465 65.3166 32.0582 64.0939C31.544 63.6054 31.3562 62.9955 31.8531 62.4318C32.3528 61.8652 32.9739 61.9577 33.5025 62.4607C34.3085 63.2267 35.2386 63.6545 36.3652 63.5851C37.2722 63.5302 37.9915 63.1169 38.1706 62.2121C38.3381 61.3623 37.668 60.9258 36.9834 60.6136C36.1976 60.258 35.3946 59.9401 34.6002 59.5961C32.5955 58.726 31.8618 57.5293 32.2257 55.7255C32.5579 54.1039 34.2334 52.9101 36.2381 52.9476Z" fill="#0A0808"/>
<path d="M9.40783 59.3908C9.40783 57.7576 9.43383 56.1215 9.39916 54.4912C9.37894 53.5373 9.78047 53.0199 10.7279 53.0026C12.0712 52.9765 13.4173 52.9765 14.7605 53.0055C15.4365 53.0199 16.0402 53.2685 16.046 54.0634C16.0547 54.9162 15.4798 55.2052 14.7028 55.1994C14.1741 55.1965 13.6368 55.2659 13.1198 55.1879C11.8545 54.9942 11.5223 55.4654 11.5194 56.7401C11.5166 58.0727 11.895 58.4745 13.2122 58.3965C14.1424 58.3415 15.6878 57.8472 15.6762 59.4689C15.6647 60.9691 14.1886 60.4459 13.2729 60.4893C11.7476 60.5615 10.9793 61.7958 11.6032 63.2498C11.7939 63.695 12.1318 63.5851 12.438 63.5909C13.2526 63.6112 14.0701 63.5823 14.8876 63.6112C15.5376 63.6343 16.0142 63.9609 16.0547 64.6431C16.1009 65.4236 15.5751 65.7849 14.8761 65.8023C13.4837 65.8427 12.0914 65.834 10.6991 65.808C9.83535 65.7936 9.39627 65.334 9.40783 64.435C9.41938 62.7555 9.40783 61.0732 9.40783 59.3908Z" fill="#0A0808"/>
<path d="M47.171 57.2863C47.9249 56.1272 48.6355 55.0576 49.323 53.9737C49.7477 53.3001 50.2849 52.7885 51.0793 53.2683C51.9084 53.7713 51.6195 54.4824 51.1862 55.1328C51.0793 55.2918 50.9898 55.4652 50.8656 55.6097C48.7973 58.0639 47.7776 60.8273 48.2311 64.0793C48.3438 64.8771 48.1878 65.7587 47.1479 65.7558C46.1108 65.753 45.9693 64.8887 46.0906 64.0793C46.5586 60.8909 45.5851 58.1824 43.5746 55.7283C43.0315 55.0663 41.9916 54.098 43.2048 53.2972C44.5018 52.4416 44.8629 53.8898 45.4147 54.6298C46.0097 55.4392 46.5268 56.3064 47.171 57.2863Z" fill="#0A0808"/>
<path d="M33.0938 48.6434C33.7726 47.8051 34.7605 47.3773 35.6156 46.7789C38.0825 45.059 39.5066 42.4574 41.2918 40.1652C43.0279 37.9394 44.6802 35.6529 46.3672 33.3895C47.3262 32.1032 47.2107 30.603 46.0928 29.7763C47.2598 28.7616 48.3546 28.7125 49.3772 29.6288C50.3333 30.4845 50.5182 31.7852 49.7151 32.8692C47.0633 36.4565 44.4462 40.0755 41.6702 43.5616C39.4893 46.302 36.6266 48.0855 33.0938 48.6434Z" fill="#F9CABB"/>
<path d="M32.3675 20.8615C31.0242 20.2834 30.6776 19.3613 31.524 18.1935C33.6847 15.2075 35.9725 12.3111 38.087 9.29324C39.1732 7.74098 40.9324 6.47199 40.6262 4.18551C40.5539 3.63918 40.5626 3.12176 39.9647 2.87316C41.1346 2.00887 42.2323 2.01465 43.174 2.89051C44.0983 3.74902 44.289 4.93996 43.5033 5.99793C39.8145 10.9698 36.0823 15.9099 32.3675 20.8615Z" fill="#F9CABB"/>
<path d="M35.9831 27.7356C34.5128 25.8596 34.5301 25.7902 35.9976 23.8217C36.7544 22.8071 37.725 21.8677 37.439 20.3906C37.3264 19.8182 37.309 19.2285 36.5782 19.0869C37.7279 18.0694 38.84 18.0029 39.8684 18.8961C40.8274 19.7286 41.021 21.0525 40.2324 22.1336C38.8487 24.0241 37.4015 25.8712 35.9831 27.7356Z" fill="#F9CABB"/>
<path d="M40.6136 33.2509C39.1982 32.005 39.1664 31.5859 40.1861 29.996C40.9891 28.7415 42.3353 27.724 42.0522 25.9665C41.954 25.3566 41.8384 24.7496 41.7286 24.1396C42.9332 23.4112 43.976 23.7956 44.7877 24.7496C45.5966 25.7006 45.5503 26.7643 44.782 27.776C43.3896 29.5971 42.0031 31.424 40.6136 33.2509Z" fill="#F9CABB"/>
<path d="M19.4002 24.5182C17.2048 24.9836 15.7547 23.995 14.6541 22.1797C13.7413 20.6766 12.502 19.3873 11.6816 17.8177C12.8862 16.3291 13.438 16.3117 14.5212 17.7859C16.1591 20.0204 17.7738 22.2722 19.4002 24.5182Z" fill="#F9CABB"/>
<path d="M23.8929 56.8586C24.4619 58.4254 24.8923 59.6192 25.3632 60.92C24.3464 60.92 23.4625 60.92 22.4688 60.92C22.7201 59.6163 23.2891 58.4514 23.8929 56.8586Z" fill="#F28895"/>
</g>
<defs>
<clipPath id="clip0_1_2047">
<rect width="61" height="74" fill="white"/>
</clipPath>
</defs>
</svg>
