<svg width="77" height="76" viewBox="0 0 77 76" fill="none" xmlns="http://www.w3.org/2000/svg">
<g clip-path="url(#clip0_1_2001)">
<path d="M7.90031 45.8087C9.04574 45.8087 10.2142 45.6725 11.3366 45.8412C13.1056 46.1072 14.5103 47.074 15.1897 48.7513C15.5737 49.6986 15.9873 49.7408 16.8734 49.4293C19.7452 48.4171 22.6662 47.5444 25.5446 46.5484C28.4886 45.5297 31.4161 45.4908 34.3733 46.4576C38.9747 47.9597 43.5794 49.452 48.1841 50.9444C50.6555 51.7457 52.1422 53.3808 52.4015 55.9633C52.4901 56.8554 52.6772 57.0988 53.6717 56.9365C58.9492 56.0898 64.2464 55.3469 69.5338 54.5715C73.1079 54.0491 76.0454 55.7621 76.8101 58.8085C77.6076 61.9846 75.8681 64.7812 72.294 65.9653C62.8975 69.0798 53.4912 72.1618 44.0947 75.2731C40.5435 76.4475 37.1236 76.1977 33.7923 74.5204C31.2685 73.2487 28.7216 72.0256 26.2075 70.7376C24.9341 70.0855 23.6443 69.9136 22.2494 70.2185C21.2385 70.4391 20.208 70.5819 19.184 70.7246C17.2738 70.9939 15.367 71.0685 14.4086 73.2844C13.9688 74.2998 12.7545 74.8481 11.5664 74.9941C9.06872 75.3023 6.54483 75.3899 4.0636 74.9584C1.73992 74.5561 0.0759217 72.6258 0.0529475 70.2834C-0.00941136 63.7495 -0.0192575 57.2155 0.0496654 50.6816C0.0792038 47.9175 2.30115 45.8639 5.11386 45.7536C6.04268 45.7179 6.97149 45.7471 7.90031 45.7471C7.90031 45.773 7.90031 45.7893 7.90031 45.8087ZM15.7674 60.515C15.7674 61.9197 15.7674 63.3245 15.7674 64.7292C15.7674 67.8048 15.8035 67.9508 18.9148 67.2111C23.0043 66.2378 26.7589 66.6109 30.3528 68.8787C32.043 69.946 33.9269 70.7214 35.7419 71.5909C37.9441 72.6485 40.2251 72.8723 42.5784 72.097C52.198 68.9338 61.8243 65.7771 71.4407 62.601C73.062 62.0657 73.7151 61.0308 73.3836 59.7136C73.0489 58.39 72.0314 57.7768 70.3313 58.0136C65.3065 58.7176 60.2817 59.4444 55.2635 60.2068C53.4912 60.476 51.5777 60.3268 49.9859 61.18C48.2793 62.0982 46.6022 62.2441 44.7773 61.91C40.002 61.0405 35.2233 60.1873 30.4447 59.334C29.2106 59.1134 28.098 58.6592 28.3868 57.1766C28.6691 55.7167 29.8572 55.6583 31.1011 55.8854C35.9322 56.7613 40.7634 57.6243 45.5946 58.497C47.4194 58.8279 48.5254 58.3316 48.8963 57.0079C49.2508 55.7459 48.4828 54.7077 46.7269 54.1303C42.2272 52.6541 37.7209 51.1877 33.2147 49.7278C31.124 49.0497 29.0301 49.0465 26.9394 49.7343C23.6311 50.8244 20.3327 51.9469 17.008 52.9883C16.0857 53.277 15.6919 53.6663 15.7411 54.6785C15.833 56.6218 15.7674 58.5716 15.7674 60.515ZM12.2326 60.4566C12.2326 57.4329 12.2228 54.4093 12.2359 51.3856C12.2425 50.0133 11.6615 49.2412 10.1945 49.2509C8.60923 49.2639 7.02729 49.2606 5.44206 49.2541C4.14894 49.2476 3.4794 49.9646 3.47284 51.1488C3.43673 57.3583 3.43345 63.5646 3.47284 69.7741C3.4794 71.0556 4.26381 71.7174 5.60288 71.6947C7.02401 71.672 8.44513 71.7044 9.86297 71.6849C11.6517 71.6622 12.2129 71.1204 12.226 69.362C12.249 66.3968 12.2359 63.4283 12.2326 60.4566Z" fill="#050504"/>
<path d="M21.0157 24.0237C21.0486 13.548 29.5983 5.14858 40.2288 5.14209C50.9545 5.13561 59.5535 13.7037 59.4846 24.3319C59.4189 34.7362 50.7445 43.194 40.1697 43.1616C29.5392 43.1291 20.9796 34.5773 21.0157 24.0237ZM55.9367 24.2378C55.9728 15.5562 48.9229 8.54208 40.1697 8.5583C31.6233 8.57127 24.521 15.5724 24.4684 24.0334C24.4159 32.6047 31.4329 39.6091 40.1271 39.6578C48.8803 39.7097 55.9006 32.8578 55.9367 24.2378Z" fill="#060503"/>
<path d="M70.3342 44.0732C70.9774 43.3562 71.5387 42.6587 72.1754 42.0358C72.9499 41.2799 73.8558 41.2215 74.6533 41.9579C75.4673 42.7073 75.4344 43.6287 74.6861 44.3976C72.986 46.1462 71.2564 47.8722 69.4743 49.543C68.6373 50.3281 67.6888 50.2372 66.8585 49.4229C65.1945 47.7878 63.5272 46.156 61.8763 44.5046C61.0689 43.6968 60.8983 42.7787 61.7713 41.9482C62.6312 41.1274 63.5666 41.309 64.3772 42.0942C64.9614 42.6587 65.4964 43.2751 66.0445 43.8655C66.7108 43.4632 66.4318 42.9247 66.4351 42.4997C66.4581 37.7533 66.4548 33.007 66.4482 28.2574C66.4482 27.229 66.5926 26.2784 67.7774 25.9507C69.041 25.6003 69.9698 26.4374 69.9764 27.9849C69.9961 32.8383 69.9797 37.6949 69.9928 42.5516C69.9928 42.9571 69.8386 43.3984 70.3342 44.0732Z" fill="#050504"/>
<path d="M12.2335 10.2971C12.2335 8.67497 12.2499 7.05609 12.2269 5.4372C12.2105 4.20438 12.7881 3.39008 14.0222 3.39332C15.1775 3.39656 15.7518 4.22385 15.7584 5.34961C15.7748 8.64577 15.7814 11.9387 15.7551 15.2349C15.7453 16.3347 15.2333 17.1879 14.032 17.1912C12.7652 17.1944 12.2236 16.3736 12.2302 15.1602C12.2433 13.5381 12.2335 11.916 12.2335 10.2971Z" fill="#050504"/>
<path d="M69.9765 13.775C69.9765 12.208 69.9962 10.641 69.97 9.07729C69.947 7.8315 70.354 6.87769 71.7488 6.86795C73.0584 6.86146 73.5015 7.79581 73.5047 8.95077C73.5179 12.1366 73.508 15.3225 73.5113 18.5084C73.5113 19.6828 73.0485 20.6204 71.7882 20.6431C70.4426 20.6658 69.9404 19.7477 69.97 18.4694C70.0061 16.9089 69.9765 15.342 69.9765 13.775Z" fill="#050504"/>
<path d="M8.71129 20.7502C8.71129 22.3658 8.70473 23.9782 8.71129 25.5939C8.71457 26.7196 8.24524 27.5339 7.04729 27.5631C5.75417 27.5923 5.25858 26.7553 5.25858 25.5549C5.26515 22.3269 5.27499 19.0956 5.25202 15.8676C5.24545 14.6542 5.74104 13.8075 7.00463 13.8172C8.2715 13.8302 8.73755 14.7094 8.71785 15.9065C8.6916 17.5189 8.71457 19.1346 8.71129 20.7502Z" fill="#050504"/>
<path d="M66.4579 7.00425C66.4579 8.56474 66.4513 10.1252 66.4611 11.6825C66.4677 12.8666 66.0345 13.7134 64.702 13.7036C63.4679 13.6939 63.0117 12.9088 63.0117 11.783C63.0117 8.5031 63.0117 5.21991 63.0117 1.93996C63.0117 0.823936 63.4482 0.0226039 64.6856 0.00313833C66.0148 -0.0195715 66.4677 0.814203 66.4611 2.00485C66.4546 3.66915 66.4579 5.3367 66.4579 7.00425Z" fill="#050504"/>
<path d="M15.7682 60.515C15.7682 58.5717 15.8338 56.6219 15.7419 54.6819C15.6959 53.6696 16.0865 53.2803 17.0088 52.9916C20.3335 51.9534 23.6319 50.8277 26.9402 49.7376C29.0309 49.0498 31.1281 49.0531 33.2155 49.7311C37.7217 51.191 42.2247 52.6574 46.7277 54.1336C48.4835 54.7078 49.2515 55.7492 48.8971 57.0112C48.5262 58.3381 47.4169 58.8313 45.5954 58.5003C40.7642 57.6276 35.9297 56.7647 31.1019 55.8887C29.8612 55.6616 28.6699 55.72 28.3876 57.1799C28.0988 58.6593 29.2147 59.1168 30.4454 59.3374C35.2241 60.1938 40.0028 61.0471 44.7781 61.9133C46.6029 62.2442 48.2768 62.0982 49.9867 61.1833C51.5752 60.3301 53.4919 60.4826 55.2643 60.2101C60.2825 59.4444 65.304 58.721 70.3321 58.0169C72.0322 57.7801 73.0529 58.3933 73.3844 59.7169C73.7159 61.0341 73.0628 62.069 71.4414 62.6043C61.8251 65.7805 52.1988 68.9339 42.5792 72.1003C40.2259 72.8724 37.9482 72.6518 35.7427 71.5942C33.9277 70.7247 32.0471 69.9493 30.3535 68.882C26.7564 66.6142 23.0051 66.2411 18.9156 67.2144C15.8043 67.9541 15.7682 67.8081 15.7682 64.7326C15.7682 63.3246 15.7682 61.9198 15.7682 60.515Z" fill="#FBCE86"/>
<path d="M12.234 60.4567C12.234 63.4252 12.2472 66.3937 12.2307 69.3655C12.2209 71.1239 11.6564 71.6656 9.86768 71.6884C8.44655 71.7046 7.02543 71.6721 5.60759 71.6981C4.26523 71.7208 3.4841 71.059 3.47754 69.7775C3.43816 63.568 3.44144 57.3617 3.47754 51.1522C3.4841 49.968 4.15364 49.2511 5.44677 49.2576C7.03199 49.2673 8.61394 49.2673 10.1992 49.2543C11.6662 49.2413 12.2439 50.0167 12.2406 51.389C12.2275 54.4127 12.234 57.4363 12.234 60.4567Z" fill="#00CC64"/>
<path d="M55.9353 24.2376C55.8992 32.8576 48.8756 39.7095 40.1257 39.6576C31.4316 39.6057 24.4146 32.6046 24.4671 24.0332C24.5196 15.5722 31.6219 8.57111 40.1684 8.55813C48.9216 8.54191 55.9714 15.5528 55.9353 24.2376ZM34.159 29.7691C34.1261 30.4212 34.4117 30.9111 34.9401 31.2809C35.7015 31.813 36.4991 32.2931 37.4049 32.5202C38.1893 32.7181 38.5996 33.0653 38.4945 33.9542C38.3501 35.2 38.8621 36.183 40.2242 36.1927C41.5961 36.2025 42.0588 35.1903 41.9998 33.9639C41.9637 33.1821 42.1442 32.7343 42.9811 32.3807C44.9634 31.547 46.3288 30.1065 46.3353 27.8355C46.3419 25.5386 44.8945 24.2052 42.9253 23.3357C41.6322 22.7647 40.2997 22.2813 39.0065 21.7136C38.3633 21.4314 37.6018 21.0875 37.6773 20.2569C37.7528 19.4069 38.4978 19.0663 39.256 18.8132C40.3653 18.4434 41.4123 18.6445 42.4264 19.1182C42.8695 19.3258 43.2765 19.5983 43.7064 19.8319C44.6221 20.3315 45.4164 20.1272 46.0039 19.3193C46.6176 18.4758 46.4371 17.6356 45.6494 17.0321C45.0127 16.5455 44.2873 16.0945 43.5292 15.8512C42.4789 15.5171 41.8783 15.118 41.9571 13.856C42.026 12.7692 41.3302 11.9841 40.1126 12.0652C39.0131 12.1366 38.4125 12.8698 38.5011 13.9241C38.593 15.0045 38.2057 15.5041 37.1948 15.9453C35.3996 16.7304 34.218 18.106 34.1425 20.1791C34.0638 22.3495 35.2814 23.725 37.0997 24.6334C38.36 25.2628 39.7089 25.7203 41.002 26.2913C41.8225 26.6514 42.9877 26.8785 42.7185 28.0853C42.4757 29.1786 41.3893 29.4187 40.3883 29.5323C39.0623 29.6815 37.9793 29.0586 36.8699 28.439C35.5243 27.6733 34.1852 28.3741 34.159 29.7691Z" fill="#F6BE00"/>
<path d="M34.1567 29.7691C34.1829 28.3741 35.5253 27.6734 36.8775 28.4325C37.9868 29.0522 39.0699 29.6751 40.3958 29.5258C41.3968 29.4123 42.4799 29.1722 42.7261 28.0789C42.9952 26.872 41.8301 26.6449 41.0096 26.2848C39.7164 25.7138 38.3675 25.2564 37.1072 24.627C35.289 23.7186 34.0713 22.343 34.1501 20.1726C34.2256 18.1028 35.4071 16.724 37.2024 15.9389C38.2133 15.4976 38.6005 14.998 38.5086 13.9177C38.42 12.8633 39.0206 12.1301 40.1201 12.0587C41.3345 11.9776 42.0303 12.7627 41.9646 13.8496C41.8859 15.1116 42.4832 15.5106 43.5367 15.8448C44.2949 16.0849 45.0202 16.5358 45.6569 17.0257C46.4446 17.6291 46.6251 18.4726 46.0114 19.3129C45.4239 20.1207 44.6297 20.3251 43.714 19.8255C43.284 19.5919 42.8738 19.3161 42.434 19.1118C41.4198 18.6381 40.3728 18.4337 39.2635 18.8068C38.5054 19.0598 37.7603 19.4005 37.6849 20.2505C37.6094 21.081 38.3708 21.4249 39.0141 21.7072C40.3072 22.2749 41.643 22.7583 42.9328 23.3293C44.9021 24.202 46.3494 25.5321 46.3429 27.8291C46.3363 30.1001 44.971 31.5405 42.9886 32.3743C42.1517 32.7279 41.9712 33.1756 42.0073 33.9575C42.0664 35.1838 41.6003 36.196 40.2317 36.1863C38.8697 36.1766 38.3577 35.1968 38.5021 33.9477C38.6071 33.0588 38.1969 32.7117 37.4124 32.5138C36.5033 32.2867 35.7091 31.8065 34.9476 31.2745C34.4127 30.9079 34.1271 30.4212 34.1567 29.7691Z" fill="#060503"/>
</g>
<defs>
<clipPath id="clip0_1_2001">
<rect width="77" height="76" fill="white"/>
</clipPath>
</defs>
</svg>
