<svg width="78" height="78" viewBox="0 0 78 78" fill="none" xmlns="http://www.w3.org/2000/svg">
<g clip-path="url(#clip0_1_2019)">
<path d="M18.2861 73.469C17.378 73.2832 17.0916 72.6951 17.0977 71.8144C17.1221 67.3504 16.9819 62.8803 17.1525 58.4193C17.3293 53.8212 19.6786 50.4938 23.847 48.5223C25.7576 47.6173 27.7199 46.822 29.8925 45.8744C26.7083 44.6007 24.6606 42.5408 23.8013 39.4511C23.006 36.5898 23.4144 33.8535 25.2853 31.5438C27.7443 28.5058 28.7559 25.1144 28.5944 21.2446C28.4543 17.8501 28.5122 14.4678 29.8529 11.2226C33.0097 3.58044 41.0907 -1.08469 49.068 0.219478C57.6761 1.62724 63.8678 8.30956 64.3676 16.8171C64.4925 18.9409 64.4254 21.077 64.4407 23.2069C64.462 26.0377 65.3091 28.5698 67.0399 30.8277C71.2144 36.2729 69.8219 42.3732 63.7124 45.5392C63.5844 45.6062 63.4839 45.7281 63.2767 45.9018C64.9983 46.6483 66.6437 47.3797 68.3044 48.0835C73.2895 50.1921 75.7394 53.9614 75.7363 59.3548C75.7333 64.2759 75.7455 69.2 75.7302 74.1211C75.7272 75.017 75.6114 75.858 76.9735 75.7574C77.5798 75.7117 78.0156 76.184 77.9973 76.8452C77.976 77.5583 77.5463 77.9452 76.8333 77.9879C76.4798 78.0092 76.1233 77.997 75.7668 77.997C51.2558 77.997 26.7448 77.997 2.23082 77.997C1.87431 77.997 1.5178 78.0153 1.16433 77.9848C0.454354 77.9209 0.0368994 77.5186 0.0490878 76.8026C0.0612763 76.1413 0.493966 75.7757 1.12167 75.7391C2.03276 75.6873 2.94689 75.7178 3.86103 75.7056C8.67547 75.6355 13.496 75.8519 18.3104 75.5929C21.0437 75.6264 23.777 75.6416 26.5102 75.6995C27.2659 75.7148 27.4609 75.4436 27.3665 74.7092C27.0983 72.6494 26.8911 70.5834 26.6717 68.5205C26.3182 65.1961 25.9221 61.8778 25.6357 58.5473C25.3767 55.5246 26.6443 54.2052 29.6335 54.193C30.1911 54.1899 30.7518 54.1564 31.3064 54.2021C32.0529 54.2631 32.4247 54.062 32.3942 53.2118C32.3393 51.5908 32.3546 49.9666 32.3881 48.3456C32.4064 47.4985 32.12 47.4101 31.4008 47.7362C29.4172 48.629 27.4152 49.4791 25.4133 50.3323C21.3911 52.0478 19.3678 55.0431 19.4196 59.4554C19.4653 63.4593 19.4226 67.4632 19.4318 71.4671C19.4409 72.3629 19.3983 73.2161 18.2861 73.469ZM50.2868 13.9863C50.101 14.0564 49.8816 14.0899 49.7292 14.2057C45.7527 17.2285 41.3344 19.2639 36.4042 20.111C35.5754 20.2542 35.6394 20.7387 35.6394 21.2994C35.6424 23.987 35.6059 26.6745 35.6546 29.359C35.7277 33.4604 38.6225 36.9372 42.6447 37.8148C44.802 38.2871 46.999 38.1774 49.1564 37.9854C53.1511 37.6319 56.4847 34.5208 56.8564 30.8734C55.3725 32.4031 53.209 32.8571 52.2279 34.8225C51.9628 35.3527 51.3259 35.6452 50.7104 35.758C49.2082 36.0322 47.6846 36.1023 46.1976 35.7275C44.9117 35.4045 44.1134 34.4995 43.8849 33.1831C43.6472 31.8241 44.0616 30.6784 45.2043 29.8496C46.7857 28.7008 50.9542 28.9507 52.3071 30.3798C52.8129 30.913 53.1389 30.9283 53.6691 30.5657C55.8539 29.0726 57.5512 27.3266 57.2739 24.377C57.1733 23.3227 57.2129 22.2471 57.2739 21.1867C57.3135 20.4493 57.0606 20.1263 56.3293 19.9526C54.7905 19.59 53.3949 18.88 52.0816 17.9933C51.4326 17.5545 51.0334 17.0456 51.2589 16.2229C51.9658 15.3514 52.6575 15.5495 53.4863 16.1224C55.7747 17.7038 58.3617 18.298 61.1193 18.2462C61.7501 18.234 62.198 18.1213 62.1462 17.3168C61.8781 13.2581 60.3758 9.7539 57.5024 6.85609C57.2068 6.55747 56.9174 6.23143 56.5608 6.81343C54.8788 9.56497 52.4869 11.6919 50.2868 13.9863ZM60.9792 75.599C61.5307 75.6386 62.0853 75.6386 62.6276 75.7208C63.8709 75.9128 64.3401 75.5197 64.4498 74.1516C64.8368 69.4072 65.3883 64.6781 65.9124 59.9459C66.3177 56.3046 66.2293 56.1919 62.4936 56.4936C51.4478 56.4753 40.399 56.454 29.3532 56.4357C28.049 56.4326 27.7717 57.1456 27.9058 58.3371C28.5 63.6208 29.0759 68.9075 29.5665 74.2003C29.6731 75.3491 29.9931 75.7178 31.1875 75.7117C39.4483 75.6569 47.709 75.6873 55.9697 75.6782C57.6395 75.6782 59.3093 75.6264 60.9792 75.599ZM47.0935 2.34636C38.3604 2.26409 31.413 8.70264 30.8463 16.8628C30.7853 17.7617 30.9681 18.1213 31.9585 18.1091C41.7275 17.9902 49.0071 13.3982 54.5711 5.65553C55.1165 4.8968 54.7387 4.62256 54.1292 4.29042C51.7708 3.00149 49.26 2.32199 47.0935 2.34636ZM46.286 50.57C49.6348 50.5212 53.2029 50.1099 56.698 49.1653C57.3714 48.9824 58.2642 49.083 58.1971 47.8885C58.1423 46.9073 58.2459 46.0755 56.9661 45.6702C54.3761 44.8536 52.4259 43.2234 51.5788 40.5328C51.4112 39.9965 51.201 39.9965 50.7165 40.0666C47.84 40.484 44.9574 40.4993 42.084 40.0513C41.633 39.9813 41.4167 40.0544 41.2979 40.4688C40.4447 43.3788 38.2934 44.9602 35.5937 45.8957C34.1859 46.3832 34.8806 47.4741 34.7344 48.3212C34.5698 49.2719 35.4108 49.1896 35.9288 49.3176C39.2441 50.1251 42.6081 50.5456 46.286 50.57ZM60.4124 47.1877C60.4124 49.3359 60.4429 51.2525 60.3972 53.1692C60.3758 53.9888 60.7019 54.2235 61.4697 54.196C62.6855 54.1503 63.9074 54.1503 65.1232 54.1991C67.1831 54.2814 68.6 55.8811 68.4446 57.9318C68.3654 58.9922 68.2161 60.0495 68.1033 61.1069C67.6402 65.5435 67.2044 69.9862 66.6925 74.4167C66.5737 75.4588 66.8936 75.7483 67.89 75.7026C69.3587 75.6355 70.8366 75.6264 72.3022 75.7056C73.2895 75.7605 73.4662 75.3704 73.4601 74.4776C73.4205 69.1513 73.4876 63.8219 73.4175 58.4955C73.3779 55.5246 72.1225 53.0351 69.6299 51.4049C66.8357 49.5736 63.5966 48.6503 60.4124 47.1877ZM59.1204 43.9303C62.8714 43.9212 65.0288 42.6749 66.3177 40.1549C67.5731 37.702 67.5183 35.1546 65.7753 32.9881C63.0908 29.6515 61.8842 25.928 62.1736 21.6925C62.2315 20.8423 62.1005 20.3792 61.0462 20.4828C60.1382 20.5711 59.3916 20.4432 59.4647 21.7991C59.5805 23.9748 59.4465 26.1626 59.5074 28.3443C59.6293 32.7017 57.9534 36.1328 54.3212 38.5522C53.6691 38.9879 53.6143 39.3749 53.8642 40.0544C54.6991 42.3397 57.2312 43.9577 59.1204 43.9303ZM33.2992 25.8853C33.2992 24.3526 33.2535 23.085 33.3144 21.8205C33.3601 20.8789 33.2535 20.37 32.059 20.37C30.8554 20.37 30.7548 20.8911 30.8188 21.8266C31.1022 25.9676 29.8072 29.5784 27.1928 32.7901C25.8429 34.4477 25.4651 36.41 25.9221 38.5186C26.498 41.1727 28.7041 43.3331 31.3704 43.8298C34.2042 44.3569 37.1568 43.2447 38.4793 41.1513C39.4726 39.579 39.4117 39.2408 38.0192 38.217C35.4931 36.3582 33.9726 33.8931 33.4698 30.782C33.1895 29.0604 33.3754 27.3388 33.2992 25.8853ZM58.0692 51.2129C55.2171 51.932 52.3436 52.5201 49.4093 52.703C44.7807 52.9894 40.1948 52.7426 35.6759 51.609C35.3773 51.5329 35.0056 51.2678 34.7466 51.7248C34.1493 52.7761 34.9202 54.1899 36.0964 54.1899C42.5868 54.193 49.0771 54.1899 55.5675 54.1899C58.38 54.1869 58.38 54.1869 58.0692 51.2129ZM48.355 33.4574C48.678 33.4574 48.8791 33.4543 49.0802 33.4574C49.7841 33.4635 50.683 33.5701 50.7134 32.6072C50.747 31.5438 49.7871 31.6291 49.0406 31.5895C48.8913 31.5804 48.7359 31.5712 48.5896 31.5895C47.7212 31.7114 46.3195 31.1781 46.3134 32.5737C46.3043 33.9266 47.6816 33.2837 48.355 33.4574Z" fill="#050505"/>
<path d="M18.2852 73.469C19.3974 73.213 19.44 72.3629 19.437 71.4579C19.4278 67.454 19.4705 63.4501 19.4248 59.4462C19.373 55.037 21.3963 52.0387 25.4184 50.3231C27.4204 49.4699 29.4224 48.6198 31.406 47.727C32.1251 47.404 32.4116 47.4924 32.3933 48.3364C32.3598 49.9575 32.3445 51.5816 32.3994 53.2027C32.4268 54.0528 32.0581 54.2539 31.3116 54.193C30.757 54.1473 30.1963 54.1838 29.6387 54.1838C26.6464 54.1991 25.3819 55.5185 25.6409 58.5381C25.9243 61.8686 26.3234 65.1869 26.6769 68.5113C26.8963 70.5773 27.1035 72.6432 27.3716 74.7C27.4661 75.4344 27.2711 75.7056 26.5154 75.6903C23.7821 75.6324 21.0489 75.6172 18.3156 75.5837C18.3034 74.8829 18.2943 74.1759 18.2852 73.469Z" fill="#8593DB"/>
<path d="M17.3841 26.5158C15.5345 26.3908 13.301 26.7138 11.0796 26.2994C4.13523 25.0014 -0.761476 18.5415 0.0978097 11.7616C1.0089 4.56437 7.3408 -0.588301 14.4832 0.0546402C21.4581 0.682346 26.7997 6.79181 26.5163 13.8794C26.3974 16.8595 25.3431 19.5226 23.4052 21.7867C22.8171 22.4753 22.6251 22.8349 23.6063 23.2767C24.4656 23.6637 25.2213 24.2609 24.8617 25.3944C24.5143 26.4883 23.5971 26.5432 22.6343 26.5249C21.0071 26.4944 19.383 26.5158 17.3841 26.5158ZM20.1173 24.1421C19.7639 22.3077 19.7639 22.3077 21.2417 20.7354C24.6149 17.1459 25.1542 11.6641 22.5428 7.51397C19.8401 3.21145 14.5564 1.28263 9.80896 2.86103C5.13773 4.41201 2.09062 8.93088 2.374 13.8824C2.66043 18.8645 6.30478 23.1731 11.1741 23.9897C14.1176 24.4833 17.1159 24.1725 20.1173 24.1421Z" fill="#050505"/>
<path d="M60.9789 75.599C59.309 75.6264 57.6392 75.6782 55.9694 75.6812C47.7087 75.6904 39.448 75.6599 31.1872 75.7148C29.9928 75.7239 29.6698 75.3552 29.5662 74.2034C29.0756 68.9106 28.5027 63.6238 27.9055 58.3401C27.7714 57.1487 28.0487 56.4357 29.3529 56.4387C40.3987 56.454 51.4475 56.4753 62.4933 56.4966C63.1576 59.1659 62.2251 61.759 62.0545 64.3826C61.8168 68.1244 61.1678 71.8419 60.9789 75.599ZM46.9073 70.4036C49.3419 70.4433 51.283 68.5845 51.3287 66.1682C51.3744 63.7335 49.5156 61.7986 47.0901 61.7529C44.6616 61.7072 42.7023 63.5781 42.6627 65.9853C42.6261 68.4017 44.5092 70.364 46.9073 70.4036Z" fill="#F7F9FA"/>
<path d="M51.2618 16.2258C51.0363 17.0486 51.4385 17.5605 52.0845 17.9962C53.3978 18.8829 54.7934 19.5929 56.3321 19.9555C57.0635 20.1292 57.3164 20.4491 57.2768 21.1896C57.2189 22.25 57.1792 23.3256 57.2768 24.3799C57.554 27.3295 55.8538 29.0755 53.672 30.5686C53.1418 30.9312 52.8158 30.919 52.31 30.3827C50.957 28.9536 46.7916 28.7007 45.2071 29.8525C44.0675 30.6813 43.6501 31.8271 43.8877 33.1861C44.1163 34.4994 44.9146 35.4044 46.2005 35.7304C47.6875 36.1052 49.211 36.0351 50.7133 35.7609C51.3288 35.6481 51.9656 35.3556 52.2307 34.8254C53.2119 32.86 55.3754 32.406 56.8593 30.8764C56.4876 34.5238 53.1571 37.6318 49.1592 37.9883C47.0019 38.1803 44.8049 38.2869 42.6476 37.8177C38.6254 36.9401 35.7306 33.4634 35.6575 29.3619C35.6087 26.6774 35.6483 23.9899 35.6423 21.3023C35.6423 20.7386 35.5783 20.2541 36.4071 20.114C41.3373 19.2638 45.7556 17.2314 49.7321 14.2087C49.8845 14.0929 50.1008 14.0624 50.2897 13.9893C50.0063 14.9948 51.2404 15.3483 51.2618 16.2258Z" fill="#FBCBBC"/>
<path d="M47.0925 2.34624C49.259 2.32186 51.7698 3.00442 54.1283 4.29334C54.7377 4.62548 55.1156 4.89972 54.5701 5.65845C49.0061 13.4012 41.7265 17.9901 31.9575 18.112C30.9672 18.1242 30.7813 17.7616 30.8453 16.8657C31.4121 8.69947 38.3625 2.26397 47.0925 2.34624Z" fill="#C28F8F"/>
<path d="M46.2866 50.5699C42.6087 50.5455 39.2417 50.125 35.9295 49.3145C35.4115 49.1895 34.5735 49.2688 34.735 48.3181C34.8813 47.471 34.1865 46.3801 35.5943 45.8926C38.2971 44.9571 40.4453 43.3756 41.2985 40.4657C41.4204 40.0543 41.6337 39.9781 42.0846 40.0482C44.9581 40.4961 47.8437 40.4809 50.7171 40.0634C51.2016 39.9934 51.4119 39.9934 51.5794 40.5296C52.4235 43.2202 54.3736 44.8474 56.9667 45.6671C58.2465 46.0693 58.1399 46.9012 58.1978 47.8854C58.2648 49.0768 57.3751 48.9793 56.6986 49.1621C53.2066 50.1098 49.6384 50.5211 46.2866 50.5699Z" fill="#FBCBBC"/>
<path d="M60.4116 47.1875C63.5928 48.6501 66.8319 49.5734 69.6322 51.4047C72.1247 53.038 73.3832 55.5274 73.4197 58.4953C73.4898 63.8217 73.4228 69.1511 73.4624 74.4774C73.4685 75.3672 73.2918 75.7603 72.3045 75.7054C70.8388 75.6232 69.361 75.6353 67.8923 75.7024C66.8959 75.7481 66.5759 75.4586 66.6948 74.4165C67.2067 69.986 67.6394 65.5433 68.1056 61.1067C68.2153 60.0494 68.3646 58.992 68.4468 57.9316C68.6022 55.8809 67.1853 54.2781 65.1255 54.1989C63.9097 54.1502 62.6878 54.1532 61.472 54.1959C60.7041 54.2233 60.3781 53.9917 60.3994 53.169C60.4451 51.2524 60.4116 49.3357 60.4116 47.1875Z" fill="#8593DB"/>
<path d="M59.1198 43.9303C57.2306 43.9577 54.6984 42.3366 53.8605 40.0513C53.6106 39.3687 53.6655 38.9817 54.3176 38.5491C57.9528 36.1297 59.6256 32.7016 59.5037 28.3412C59.4428 26.1595 59.5799 23.9717 59.4611 21.796C59.388 20.4401 60.1345 20.568 61.0425 20.4797C62.0938 20.3761 62.2279 20.8392 62.17 21.6894C61.8805 25.9249 63.0872 29.6454 65.7717 32.985C67.5146 35.1515 67.5695 37.702 66.314 40.1518C65.0282 42.6748 62.8708 43.9211 59.1198 43.9303Z" fill="#C28F8F"/>
<path d="M33.3003 25.8853C33.3765 27.3387 33.1936 29.0604 33.4709 30.7789C33.9737 33.89 35.4912 36.3582 38.0203 38.2139C39.4128 39.2377 39.4737 39.579 38.4804 41.1483C37.1579 43.2416 34.2053 44.3538 31.3715 43.8267C28.7052 43.33 26.4961 41.1696 25.9232 38.5156C25.4662 36.4069 25.844 34.4446 27.1939 32.787C29.8083 29.5784 31.1033 25.9675 30.8199 21.8235C30.7559 20.888 30.8595 20.3669 32.0601 20.3669C33.2546 20.3669 33.3582 20.8758 33.3155 21.8174C33.2546 23.085 33.3003 24.3526 33.3003 25.8853Z" fill="#C28F8F"/>
<path d="M51.2626 16.2258C51.2412 15.3483 50.0072 14.9948 50.2875 13.9862C52.4875 11.6917 54.8795 9.56484 56.5615 6.81634C56.918 6.23435 57.2075 6.56039 57.5031 6.859C60.3795 9.75681 61.8787 13.261 62.1469 17.3197C62.1987 18.1242 61.7507 18.2369 61.12 18.2491C58.3624 18.3009 55.7754 17.7067 53.487 16.1253C52.6612 15.5524 51.9665 15.3513 51.2626 16.2258Z" fill="#C28F8F"/>
<path d="M60.9805 75.5989C61.1663 71.8418 61.8154 68.1243 62.0591 64.3794C62.2298 61.7558 63.1622 59.1627 62.4979 56.4934C66.2337 56.1948 66.3221 56.3045 65.9168 59.9458C65.3896 64.678 64.8412 69.4071 64.4542 74.1515C64.3414 75.5196 63.8752 75.9097 62.632 75.7207C62.0866 75.6385 61.532 75.6354 60.9805 75.5989Z" fill="#FBCBBC"/>
<path d="M58.0686 51.2129C58.3794 54.1869 58.3794 54.1869 55.5669 54.1869C49.0765 54.1869 42.5862 54.1869 36.0958 54.1869C34.9197 54.1869 34.1487 52.773 34.746 51.7218C35.005 51.2647 35.3767 51.5328 35.6753 51.606C40.1912 52.7395 44.7801 52.9863 49.4087 52.6999C52.3431 52.5201 55.2165 51.932 58.0686 51.2129Z" fill="#F7F9FA"/>
<path d="M48.3552 33.4574C47.6818 33.2837 46.3015 33.9266 46.3106 32.5737C46.3167 31.1751 47.7184 31.7083 48.5868 31.5895C48.7361 31.5682 48.8884 31.5803 49.0378 31.5895C49.7873 31.6291 50.7441 31.5468 50.7106 32.6072C50.6802 33.5732 49.7843 33.4665 49.0774 33.4574C48.8793 33.4574 48.6782 33.4574 48.3552 33.4574Z" fill="#C28F8F"/>
<path d="M20.117 24.1422C17.1156 24.1726 14.1173 24.4835 11.1707 23.9898C6.30446 23.1732 2.65707 18.8646 2.37369 13.8825C2.0903 8.93099 5.13742 4.41212 9.80864 2.86114C14.556 1.28273 19.8397 3.21155 22.5425 7.51408C25.1539 11.6642 24.6146 17.1491 21.2414 20.7355C19.7636 22.3078 19.7636 22.3078 20.117 24.1422ZM8.72387 14.3731C9.42166 14.3091 9.82997 13.9404 9.8056 13.2213C9.78122 12.4992 9.34243 12.1426 8.6355 12.1731C7.98952 12.2036 7.633 12.5906 7.62082 13.2305C7.60863 13.9496 8.0078 14.3213 8.72387 14.3731ZM12.1793 13.2274C12.2128 13.9374 12.5663 14.364 13.2854 14.3609C13.9984 14.3548 14.3915 13.9435 14.3763 13.2274C14.3641 12.5845 13.9984 12.2097 13.3555 12.1762C12.6394 12.1396 12.2463 12.5144 12.1793 13.2274ZM18.9591 13.3219C18.9317 12.5906 18.5691 12.1792 17.853 12.1701C17.2223 12.164 16.8109 12.4992 16.7652 13.1512C16.7164 13.8551 17.0486 14.3091 17.7768 14.3548C18.4899 14.3975 18.8769 14.0105 18.9591 13.3219Z" fill="#79C8A5"/>
<path d="M46.9074 70.4035C44.5093 70.3639 42.6231 68.4016 42.6627 65.9822C42.7023 63.578 44.6586 61.7071 47.0902 61.7497C49.5157 61.7954 51.3775 63.7304 51.3287 66.165C51.283 68.5844 49.345 70.4432 46.9074 70.4035ZM47.0049 64.0412C45.914 64.0412 45.006 64.9644 45.0029 66.0705C44.9999 67.1858 45.9018 68.0908 47.0079 68.0877C48.1018 68.0847 49.0342 67.1553 49.0312 66.0675C49.0281 65.001 48.0683 64.0412 47.0049 64.0412Z" fill="#050505"/>
<path d="M8.72442 14.3733C8.00835 14.3215 7.60918 13.9467 7.62136 13.2307C7.63051 12.5908 7.98702 12.2038 8.63605 12.1733C9.34603 12.1398 9.78177 12.4963 9.80614 13.2215C9.83052 13.9406 9.42221 14.3093 8.72442 14.3733Z" fill="#050505"/>
<path d="M12.1797 13.2275C12.2498 12.5175 12.6398 12.1397 13.3559 12.1763C13.9988 12.2067 14.3675 12.5846 14.3767 13.2275C14.3888 13.9436 13.9958 14.358 13.2858 14.361C12.5667 14.3641 12.2102 13.9375 12.1797 13.2275Z" fill="#050505"/>
<path d="M18.9603 13.3221C18.8811 14.0107 18.4941 14.4007 17.778 14.355C17.0528 14.3093 16.7176 13.8553 16.7664 13.1514C16.8121 12.4993 17.2234 12.1642 17.8542 12.1702C18.5703 12.1794 18.9329 12.5908 18.9603 13.3221Z" fill="#050505"/>
<path d="M47.0059 64.0413C48.0693 64.0413 49.0292 65.0042 49.0322 66.0706C49.0352 67.1585 48.1028 68.0878 47.0089 68.0909C45.9028 68.0939 45.0009 67.1889 45.0039 66.0737C45.007 64.9615 45.915 64.0382 47.0059 64.0413Z" fill="#FBCBBC"/>
</g>
<defs>
<clipPath id="clip0_1_2019">
<rect width="78" height="78" fill="white"/>
</clipPath>
</defs>
</svg>
