<svg width="20" height="20" viewBox="0 0 20 20" fill="none" xmlns="http://www.w3.org/2000/svg">
<circle cx="10" cy="10" r="10" fill="#DA126A"/>
<g clip-path="url(#clip0_1_4971)">
<path d="M5.00071 10.4861C5.00071 9.52706 4.99964 8.56802 5.00071 7.60952C5.00231 6.64782 5.64201 6.00154 6.59703 6.00101C8.53264 5.99941 10.4682 5.99994 12.4039 6.00101C13.3466 6.00154 13.998 6.64676 13.9991 7.58288C14.0007 9.52759 14.0007 11.4718 13.9991 13.4165C13.998 14.3419 13.3493 14.9967 12.43 14.9983C10.4762 15.001 8.52305 15.001 6.56933 14.9983C5.65 14.9973 5.00284 14.3419 5.00071 13.4159C4.99911 12.4393 5.00071 11.4627 5.00071 10.4861ZM9.52761 7.00746C8.54223 7.00746 7.55738 7.0064 6.572 7.00799C6.17891 7.00853 6.00846 7.18062 6.00846 7.57702C6.00793 9.52972 6.0074 11.4824 6.00846 13.4351C6.00846 13.8145 6.18317 13.9919 6.55761 13.9919C8.51932 13.993 10.481 13.993 12.4422 13.9919C12.8177 13.9919 12.9924 13.815 12.9924 13.4362C12.9935 11.4835 12.9935 9.53079 12.9924 7.57809C12.9924 7.18115 12.822 7.00853 12.43 7.00799C11.4627 7.0064 10.4949 7.00746 9.52761 7.00746Z" fill="white"/>
<path d="M10.2487 8.51245C10.9992 10.0133 11.7321 11.4785 12.4789 12.972C10.482 12.972 8.52616 12.972 6.52344 12.972C7.01826 12.1461 7.50083 11.3395 7.99778 10.5099C8.25185 10.9234 8.49047 11.3118 8.7504 11.7353C9.25534 10.6484 9.74217 9.60149 10.2487 8.51245Z" fill="white"/>
<path d="M7.01564 8.75825C7.01298 8.33148 7.32138 8.0166 7.74482 8.01393C8.15922 8.01127 8.49585 8.33627 8.50011 8.74386C8.5049 9.1424 8.16241 9.49191 7.75974 9.4999C7.35813 9.50736 7.01831 9.16904 7.01564 8.75825Z" fill="white"/>
</g>
<defs>
<clipPath id="clip0_1_4971">
<rect width="9" height="9" fill="white" transform="translate(5 6)"/>
</clipPath>
</defs>
</svg>
