<svg width="20" height="20" viewBox="0 0 20 20" fill="none" xmlns="http://www.w3.org/2000/svg">
<circle cx="10" cy="10" r="10" fill="#DA126A"/>
<path d="M6.60454 15.1538C5.30838 15.1454 4.23616 14.3122 4.03586 13.1515C3.90017 12.3652 4.13409 11.6676 4.7393 11.0961C5.5145 10.364 6.30452 9.64505 7.09121 8.92319C7.40988 8.63079 7.78749 8.4222 8.22537 8.3255C9.17289 8.11629 10.0169 8.29664 10.7266 8.92917C10.9416 9.12073 11.0075 9.3614 10.9291 9.62648C10.8507 9.8914 10.6547 10.0547 10.366 10.1147C10.0921 10.1718 9.84953 10.1046 9.64524 9.92778C9.50239 9.80407 9.33939 9.71581 9.14775 9.67851C8.76948 9.60484 8.43782 9.69141 8.16327 9.94282C7.61184 10.4475 7.06357 10.9549 6.51414 11.4615C6.28654 11.6713 6.05461 11.8773 5.83251 12.092C5.31854 12.5888 5.51434 13.4105 6.20912 13.6573C6.62569 13.8054 7.00996 13.7326 7.33029 13.4461C7.77817 13.0453 8.21721 12.636 8.65543 12.226C8.76315 12.1251 8.86654 12.1003 9.01172 12.1554C9.37235 12.292 9.75196 12.3446 10.1412 12.344C10.3034 12.3437 10.405 12.435 10.3873 12.5684C10.3815 12.6131 10.3563 12.664 10.3222 12.6957C9.66072 13.3086 9.00523 13.9274 8.32976 14.527C7.84759 14.9546 7.24921 15.1448 6.60454 15.1538Z" fill="white"/>
<path d="M12.3404 5.00169C13.5845 4.95625 14.7353 5.8069 14.9527 6.94073C15.1122 7.77234 14.8678 8.49512 14.2241 9.09573C13.4698 9.79979 12.7079 10.4972 11.9492 11.1976C11.4588 11.6501 10.8654 11.8948 10.1737 11.9127C9.45307 11.9316 8.82555 11.7049 8.30292 11.245C7.97293 10.9546 7.95645 10.5186 8.25564 10.2302C8.54684 9.94944 9.04033 9.94944 9.36433 10.2303C9.71164 10.5313 10.2091 10.5887 10.6162 10.3697C10.6966 10.3264 10.7725 10.2715 10.8385 10.2108C11.611 9.50171 12.3832 8.79212 13.1514 8.07886C13.4536 7.79827 13.5447 7.4586 13.4093 7.08409C13.2741 6.70972 12.9788 6.48655 12.5562 6.42991C12.2124 6.38386 11.9105 6.48348 11.6626 6.71279C11.2221 7.12031 10.7794 7.52598 10.3412 7.9358C10.2406 8.02989 10.1405 8.05399 10.0058 8.00288C9.65036 7.86827 9.27725 7.81316 8.89381 7.81178C8.84703 7.81163 8.79741 7.81209 8.75412 7.79874C8.59662 7.75023 8.55833 7.56881 8.6822 7.4543C9.33469 6.8514 9.98152 6.24311 10.6438 5.64957C11.112 5.23039 11.6893 5.02732 12.3404 5.00169Z" fill="white"/>
</svg>
