<svg width="44" height="44" viewBox="0 0 44 44" fill="none" xmlns="http://www.w3.org/2000/svg">
<path d="M17.1611 17.6821C17.1848 20.3432 19.3626 22.4945 22.0205 22.4843C24.6735 22.4741 26.8518 20.2773 26.8314 17.629L26.8314 17.6289C26.8098 14.9632 24.6389 12.824 21.9718 12.8353C19.3106 12.8466 17.1362 15.0295 17.1611 17.6821ZM17.1611 17.6821L17.661 17.6776L17.1611 17.6823C17.1611 17.6822 17.1611 17.6821 17.1611 17.6821ZM13.836 18.3193L13.836 18.3183C13.8642 13.6208 16.7919 10.206 20.6315 9.6048C24.7202 8.96493 28.5519 11.3061 29.7792 15.2223L29.7792 15.2224C30.451 17.3646 30.2918 19.4599 29.2268 21.4239C27.4275 24.7397 25.5965 28.0381 23.7643 31.3387C23.2175 32.3236 22.6706 33.3088 22.1245 34.2946L22.1244 34.2948C22.0724 34.3887 22.0272 34.4449 21.9956 34.4762C21.9645 34.4453 21.9201 34.39 21.869 34.2978L21.869 34.2977C21.6067 33.8243 21.3445 33.3511 21.0822 32.8778C18.9688 29.0636 16.8558 25.2502 14.7605 21.4272C14.1161 20.2514 13.8307 18.9893 13.836 18.3193ZM13.3363 18.3153L13.336 18.3153L13.3363 18.3153Z" fill="#DA126A" stroke="#DA126A"/>
<circle cx="22" cy="22" r="21.5" stroke="#DA126A"/>
</svg>
