<svg width="44" height="44" viewBox="0 0 44 44" fill="none" xmlns="http://www.w3.org/2000/svg">
<circle cx="22" cy="22" r="21.5" stroke="#DA126A"/>
<path d="M10.4708 17.7621L10.4708 17.7621C10.4976 19.0574 10.9088 20.2757 11.473 21.4903C13.5525 25.9669 16.7815 29.38 21.081 31.7966C22.5665 32.6316 24.0756 33.2845 25.7334 33.4695L25.7335 33.4695C26.8399 33.5932 27.7241 33.3525 28.4392 32.547L28.4392 32.547C28.724 32.2262 29.0458 31.9112 29.3517 31.6117C29.514 31.4529 29.6717 31.2984 29.8172 31.1497L29.8174 31.1495C30.2031 30.7559 30.3337 30.434 30.336 30.1728C30.3383 29.9138 30.2153 29.597 29.8364 29.2101L29.8363 29.2101C28.988 28.3438 28.1276 27.487 27.2602 26.6367L27.2601 26.6366C26.8659 26.25 26.5505 26.1256 26.2959 26.1265C26.0403 26.1274 25.7225 26.2549 25.3251 26.6435L25.325 26.6436C24.8114 27.1455 24.3044 27.6508 23.8109 28.1657L23.8108 28.1658C23.6684 28.3143 23.4735 28.4642 23.2169 28.5096C22.9464 28.5575 22.7021 28.4736 22.5009 28.3406C22.2427 28.1705 21.9677 28.0001 21.686 27.8255C21.0293 27.4184 20.3358 26.9885 19.7325 26.4863C18.0622 25.0966 16.5823 23.4797 15.5981 21.4473C15.4993 21.2436 15.4281 21.0033 15.4728 20.7405C15.5179 20.475 15.6665 20.2712 15.8341 20.1117L15.8342 20.1116C16.3521 19.6187 16.86 19.1179 17.3507 18.6032L17.3508 18.6031C17.7203 18.2156 17.84 17.909 17.8397 17.6627C17.8395 17.4173 17.7199 17.1124 17.3474 16.7283L17.3474 16.7283C16.4823 15.8362 15.605 14.9563 14.7136 14.0919C14.3582 13.7472 14.053 13.6315 13.7983 13.6335C13.5412 13.6355 13.2305 13.7582 12.8676 14.1075L10.4708 17.7621ZM10.4708 17.7621L10.4706 17.7567M10.4708 17.7621L10.4706 17.7567M10.4706 17.7567C10.4433 16.8873 10.7133 16.1861 11.3505 15.6059M10.4706 17.7567L11.3505 15.6059M11.3505 15.6059C11.6606 15.3242 11.9774 15.0022 12.2815 14.6932C12.4844 14.487 12.6817 14.2865 12.8675 14.1076L11.3505 15.6059Z" fill="#DA126A" stroke="#DA126A"/>
<path d="M32.2315 21.3811C32.0539 21.4117 31.876 21.4424 31.6979 21.4732C31.0372 19.002 29.9235 16.9873 28.3306 15.4431C26.7374 13.8987 24.6913 12.8507 22.2058 12.2723C22.239 12.0274 22.2727 11.7791 22.3066 11.5295C26.7277 12.1749 31.3242 15.9055 32.4497 21.3435C32.377 21.356 32.3043 21.3686 32.2315 21.3811Z" fill="#DA126A" stroke="#DA126A"/>
<path d="M25.1799 18.637C24.3285 17.8113 23.2491 17.2397 21.9585 16.9046C21.9807 16.75 22.0026 16.5968 22.0243 16.4449C22.0391 16.3414 22.0538 16.2385 22.0685 16.1362C24.6502 16.5859 27.1312 18.8184 27.7615 21.6516C27.6473 21.6715 27.5333 21.6914 27.419 21.7114C27.2786 21.7359 27.1375 21.7605 26.9946 21.7854C26.6295 20.5167 26.0301 19.4616 25.1799 18.637Z" fill="#DA126A" stroke="#DA126A"/>
</svg>
