<svg width="32" height="32" viewBox="0 0 32 32" fill="none" xmlns="http://www.w3.org/2000/svg">
<path d="M28.7859 25.6679C29.6727 24.3553 30.4872 23.0118 31.0229 21.5045C31.8516 19.1707 32.1756 16.8047 31.9084 14.3265C31.5883 11.348 30.5104 8.70604 28.7278 6.32196C26.8935 3.86826 24.499 2.16756 21.6604 1.06513C19.5124 0.230896 17.2715 -0.131422 14.9854 0.0426456C11.4976 0.30697 8.3802 1.53705 5.68621 3.82055C2.86572 6.21236 1.08565 9.21792 0.343412 12.8076C-0.481438 16.8021 0.188513 20.5839 2.25257 24.1091C2.56366 24.6403 2.91219 25.1496 3.24394 25.6679C4.12171 24.6441 4.99045 23.6178 6.06443 22.7745C9.29283 20.2396 12.9653 19.0134 17.0431 19.3061C21.8024 19.6504 25.702 21.743 28.6451 25.5364C28.6852 25.588 28.7342 25.6292 28.7859 25.6679Z" fill="#E6EAFD"/>
<path d="M28.7863 25.6685C28.8444 25.3939 28.6508 25.234 28.5023 25.056C25.6857 21.6778 22.1178 19.6458 17.7199 19.2164C11.9498 18.6529 7.23052 20.7044 3.50257 25.1012C3.36574 25.2623 3.216 25.4274 3.24569 25.6685C5.23617 28.1828 7.71071 30.0292 10.7494 31.0968C17.1907 33.3584 24.2425 31.2889 28.6172 25.858C28.6688 25.7923 28.7295 25.7317 28.7863 25.6685Z" fill="#162B49"/>
<path d="M16.0542 17.0358C19.444 17.0306 22.2129 14.2378 22.209 10.8274C22.2064 7.40791 19.4066 4.65378 15.9458 4.66409C12.569 4.67441 9.81559 7.4814 9.82334 10.9034C9.82979 14.2842 12.6322 17.0409 16.0542 17.0358Z" fill="#162B49"/>
</svg>
