<svg width="180" height="37" viewBox="0 0 180 37" fill="none" xmlns="http://www.w3.org/2000/svg">
<path d="M49.6254 12.5992C47.9213 12.5099 46.4086 13.3587 45.5534 14.6735C44.7747 15.8671 43.3833 16.5245 41.96 16.5245H38.1816C36.7519 16.5245 35.3669 15.8671 34.5882 14.6735C33.7329 13.3587 32.2203 12.5099 30.5162 12.5992C28.1738 12.7269 26.2526 14.7182 26.208 17.067C26.1569 19.62 28.2248 21.7198 30.7651 21.7198C32.182 21.7198 33.4521 21.0688 34.2882 20.0476C35.035 19.1349 36.1966 18.6626 37.3774 18.6626H42.7578C43.9386 18.6626 45.1002 19.1349 45.847 20.0476C46.6831 21.0688 47.9532 21.7198 49.3701 21.7198C51.9167 21.7198 53.9783 19.6264 53.9272 17.067C53.8953 14.7182 51.9742 12.7269 49.6254 12.5992ZM30.7715 19.5817C29.4311 19.5817 28.3397 18.4903 28.3397 17.1563C28.3397 15.816 29.4311 14.7246 30.7715 14.7246C32.1118 14.7246 33.2032 15.816 33.2032 17.1563C33.1968 18.4903 32.1118 19.5817 30.7715 19.5817ZM49.3765 19.5817C48.0362 19.5817 46.9511 18.4903 46.9511 17.1563C46.9511 15.816 48.0425 14.7246 49.3765 14.7246C50.7168 14.7246 51.8082 15.816 51.8082 17.1563C51.8082 18.4903 50.7168 19.5817 49.3765 19.5817Z" fill="url(#paint0_linear_1_1753)"/>
<path d="M12.9191 18.9752C13.5638 18.9752 14.0808 18.4008 13.9722 17.7307C13.8893 17.2073 13.3978 16.8435 12.8617 16.8435H11.6299C10.2959 16.8435 9.10877 16.1095 8.38117 14.9926C7.52591 13.6778 6.01325 12.8289 4.30912 12.9182C1.96674 13.0459 0.0456033 15.0372 0.000925674 17.3796C-0.0501344 19.9326 2.0178 22.0325 4.55804 22.0325C5.97496 22.0325 7.24508 21.3815 8.08119 20.3603C8.7705 19.5178 9.75979 18.9752 10.8448 18.9752H12.9191ZM4.57081 19.9007C3.23048 19.9007 2.13907 18.8093 2.13907 17.4754C2.13907 16.135 3.23048 15.0436 4.57081 15.0436C5.91113 15.0436 6.99616 16.135 6.99616 17.4754C6.99616 18.8093 5.90475 19.9007 4.57081 19.9007Z" fill="url(#paint1_linear_1_1753)"/>
<path d="M27.9626 8.52699C30.1454 8.52699 32.29 9.28013 34.0132 10.646C34.626 11.1311 35.5195 11.0353 36.011 10.4162C36.496 9.80349 36.3939 8.90994 35.7812 8.41849C33.5601 6.65691 30.7837 5.68039 27.9626 5.68039C21.0376 5.68039 15.4082 11.3162 15.4082 18.2348C15.4082 25.1598 21.044 30.7892 27.9626 30.7892C31.5496 30.7892 34.9706 29.2574 37.3513 26.5831C37.8747 25.9959 37.8172 25.096 37.23 24.579C36.6428 24.0556 35.7429 24.1131 35.2259 24.7003C33.3878 26.7682 30.739 27.9554 27.9626 27.9554C22.6077 27.9554 18.2484 23.5961 18.2484 18.2412C18.2484 12.8862 22.6077 8.52699 27.9626 8.52699Z" fill="url(#paint2_linear_1_1753)"/>
<path d="M44.6394 20.826C43.8799 20.6409 43.1076 21.1132 42.9225 21.8727C41.2503 28.8041 35.0976 33.6421 27.9619 33.6421C20.7752 33.6421 14.6097 28.7595 12.9758 21.7706C12.797 21.0047 12.0311 20.5324 11.2652 20.7111C10.4993 20.8898 10.027 21.6557 10.2057 22.4216C12.146 30.6997 19.4476 36.4823 27.9619 36.4823C36.4123 36.4823 43.7012 30.7508 45.6925 22.5429C45.8776 21.7834 45.4053 21.0111 44.6394 20.826Z" fill="url(#paint3_linear_1_1753)"/>
<path d="M11.5025 14.5011C11.643 14.5458 11.7898 14.5649 11.9302 14.5649C12.5301 14.5649 13.0918 14.1756 13.2833 13.5756C15.3257 7.1548 21.2231 2.84022 27.963 2.84022C34.4796 2.84022 40.3196 6.96332 42.4833 13.1097C42.496 13.1607 42.5152 13.2118 42.5279 13.2629C42.7896 14.0032 43.5938 14.3926 44.3406 14.1309C45.0809 13.8692 45.4703 13.0586 45.215 12.3183C45.2022 12.2672 45.1831 12.2161 45.1639 12.1587C42.5981 4.88901 35.6859 0 27.963 0C19.9785 0 12.9897 5.11239 10.5771 12.7204C10.3345 13.4671 10.7494 14.2649 11.5025 14.5011Z" fill="url(#paint4_linear_1_1753)"/>
<path d="M61.3125 10.0812H67.344C69.2396 10.0812 70.9006 10.4642 72.3271 11.2301C73.7536 11.9864 74.8642 13.0635 75.6588 14.4612C76.4534 15.859 76.8507 17.5105 76.8507 19.4157C76.8507 21.3017 76.4534 22.9436 75.6588 24.3414C74.8642 25.7296 73.7536 26.8066 72.3271 27.5725C70.9006 28.3384 69.2396 28.7214 67.344 28.7214H61.3125V10.0812ZM64.7016 13.1544V25.6769H67.344C68.5503 25.6769 69.589 25.4041 70.4602 24.8584C71.341 24.3127 72.016 23.5707 72.4851 22.6325C72.9638 21.6847 73.2031 20.6124 73.2031 19.4157C73.2031 18.1998 72.9638 17.1228 72.4851 16.1845C72.016 15.2463 71.341 14.5091 70.4602 13.973C69.589 13.4273 68.5503 13.1544 67.344 13.1544H64.7016Z" fill="#1B3355"/>
<path d="M86.2289 29.1235C85.0418 29.1235 83.9551 28.8171 82.969 28.2044C81.9829 27.5917 81.1931 26.7348 80.5995 25.6338C80.006 24.5233 79.7092 23.226 79.7092 21.7421C79.7092 20.2103 80.0012 18.8939 80.5852 17.7929C81.1788 16.6919 81.9686 15.8494 82.9547 15.2654C83.9408 14.6814 85.0322 14.3894 86.2289 14.3894C87.3395 14.3894 88.2969 14.6144 89.101 15.0644C89.9148 15.5048 90.5658 16.1079 91.0541 16.8738C91.5519 17.6302 91.887 18.487 92.0593 19.4444C92.2317 20.4018 92.2412 21.3879 92.0881 22.4027H82.409V20.5645H89.6898L89.0292 20.9953C89.058 20.5454 89.034 20.0906 88.9574 19.6311C88.8904 19.1715 88.7564 18.7503 88.5553 18.3673C88.3543 17.9844 88.0671 17.678 87.6937 17.4483C87.3299 17.2089 86.8608 17.0892 86.2864 17.0892C85.597 17.0892 85.013 17.2616 84.5344 17.6062C84.0557 17.9509 83.6919 18.42 83.4429 19.0136C83.194 19.6071 83.0696 20.2773 83.0696 21.0241V22.374C83.0696 23.159 83.1845 23.8531 83.4142 24.4563C83.6536 25.0594 84.003 25.5333 84.4626 25.878C84.9317 26.2226 85.5205 26.395 86.2289 26.395C86.8895 26.395 87.4448 26.2418 87.8948 25.9354C88.3447 25.629 88.6319 25.1695 88.7564 24.5568H92.1742C92.0306 25.4567 91.6908 26.2513 91.1546 26.9407C90.6281 27.6204 89.9435 28.1565 89.101 28.5491C88.2586 28.932 87.3012 29.1235 86.2289 29.1235Z" fill="#1B3355"/>
<path d="M101.631 35.9304C100.033 35.9304 98.6635 35.7102 97.5242 35.2698C96.3945 34.8294 95.5281 34.2502 94.925 33.5322C94.3218 32.8237 94.0202 32.0531 94.0202 31.2201C94.0202 30.234 94.3793 29.4681 95.0973 28.9224C95.8153 28.3863 96.7201 28.1182 97.8115 28.1182L100.281 29.0373C99.3433 29.0373 98.6204 29.2144 98.113 29.5687C97.6056 29.9229 97.3519 30.4159 97.3519 31.0478C97.3519 31.7084 97.7301 32.235 98.4864 32.6275C99.2523 33.0296 100.301 33.2306 101.631 33.2306C102.598 33.2306 103.436 33.087 104.145 32.7998C104.853 32.5126 105.399 32.1392 105.782 31.6797C106.174 31.2201 106.37 30.7319 106.37 30.2149C106.37 29.8702 106.256 29.5878 106.026 29.3676C105.796 29.1474 105.442 29.0373 104.963 29.0373H100.281C99.3433 29.0373 98.4864 28.8889 97.7109 28.5921C96.945 28.2858 96.3323 27.8789 95.8728 27.3715C95.4228 26.8545 95.1978 26.2801 95.1978 25.6482C95.1978 25.0642 95.3606 24.5616 95.6861 24.1403C96.0116 23.7095 96.452 23.3792 97.0073 23.1494C97.5721 22.9197 98.204 22.8048 98.9029 22.8048L99.7645 23.9249C99.4869 23.9249 99.2188 23.9824 98.9603 24.0972C98.7114 24.2026 98.5056 24.3605 98.3428 24.5712C98.18 24.7818 98.0987 25.0451 98.0987 25.361C98.0987 25.7439 98.2614 26.0551 98.5869 26.2944C98.9124 26.5338 99.4773 26.6534 100.281 26.6534H104.963C106.447 26.6534 107.61 26.9263 108.453 27.472C109.305 28.0177 109.731 28.8554 109.731 29.9851C109.731 30.9904 109.401 31.943 108.74 32.8429C108.079 33.7524 107.141 34.4944 105.925 35.0688C104.719 35.6432 103.288 35.9304 101.631 35.9304ZM101.804 24.4132C100.703 24.4132 99.6927 24.2073 98.7736 23.7957C97.8641 23.3744 97.1365 22.7904 96.5908 22.0437C96.0451 21.2969 95.7722 20.4209 95.7722 19.4157C95.7722 18.3913 96.0451 17.5009 96.5908 16.7446C97.1365 15.9883 97.8641 15.409 98.7736 15.0069C99.6927 14.5953 100.703 14.3894 101.804 14.3894C102.876 14.3894 103.867 14.5953 104.776 15.0069C105.686 15.409 106.418 15.9883 106.974 16.7446C107.529 17.5009 107.806 18.3913 107.806 19.4157C107.806 20.4209 107.529 21.2969 106.974 22.0437C106.418 22.7904 105.686 23.3744 104.776 23.7957C103.867 24.2073 102.876 24.4132 101.804 24.4132ZM101.832 22.058C102.713 22.058 103.374 21.8043 103.814 21.2969C104.255 20.7895 104.475 20.1624 104.475 19.4157C104.475 18.6115 104.25 17.9652 103.8 17.477C103.359 16.9887 102.694 16.7446 101.804 16.7446C100.942 16.7446 100.281 16.9887 99.8219 17.477C99.3624 17.9652 99.1326 18.6115 99.1326 19.4157C99.1326 20.1624 99.3624 20.7895 99.8219 21.2969C100.291 21.8043 100.961 22.058 101.832 22.058ZM106.744 16.6297L105.193 15.7393C105.193 14.9064 105.384 14.1788 105.767 13.5565C106.16 12.9247 106.677 12.4364 107.318 12.0917C107.969 11.7471 108.687 11.5748 109.472 11.5748L109.3 14.8203C108.467 14.8203 107.83 14.9687 107.39 15.2654C106.959 15.5527 106.744 16.0074 106.744 16.6297Z" fill="#1B3355"/>
<path d="M112.977 10.0812H117.831L123.087 21.4836H122.8L128.056 10.0812H132.737V28.7214H129.32V13.9873H129.837L124.035 26.6822H121.823L116.05 14.0448H116.366V28.7214H112.977V10.0812Z" fill="#1B3355"/>
<path d="M146.955 28.7214L146.524 25.3323V19.7316C146.524 18.7551 146.323 18.0323 145.921 17.5631C145.529 17.094 144.859 16.8595 143.911 16.8595C143.365 16.8595 142.891 16.9409 142.489 17.1036C142.087 17.2664 141.776 17.5009 141.556 17.8073C141.345 18.1041 141.24 18.4679 141.24 18.8987H137.535C137.535 17.8456 137.788 16.9887 138.296 16.3281C138.803 15.658 139.531 15.1697 140.479 14.8633C141.436 14.5474 142.58 14.3894 143.911 14.3894C145.117 14.3894 146.17 14.5857 147.07 14.9782C147.97 15.3612 148.669 15.9548 149.167 16.7589C149.665 17.5631 149.914 18.5923 149.914 19.8465V28.7214H146.955ZM142.389 29.1235C141.192 29.1235 140.191 28.9176 139.387 28.506C138.593 28.0847 137.994 27.5342 137.592 26.8545C137.19 26.1748 136.989 25.4376 136.989 24.643C136.989 23.7622 137.219 23.025 137.678 22.4314C138.147 21.8283 138.808 21.3783 139.66 21.0815C140.512 20.7751 141.517 20.622 142.676 20.622C143.432 20.622 144.145 20.6794 144.815 20.7943C145.495 20.9092 146.17 21.0624 146.84 21.2538V23.2356C146.314 23.0633 145.739 22.9292 145.117 22.8335C144.495 22.7378 143.911 22.6899 143.365 22.6899C142.561 22.6899 141.9 22.8383 141.383 23.1351C140.866 23.4319 140.608 23.9345 140.608 24.643C140.608 25.1599 140.818 25.6051 141.24 25.9785C141.661 26.3519 142.331 26.5386 143.25 26.5386C143.949 26.5386 144.543 26.3854 145.031 26.079C145.519 25.7727 145.888 25.3897 146.137 24.9302C146.395 24.4706 146.524 24.0111 146.524 23.5515H147.329C147.329 24.5568 147.142 25.4854 146.769 26.3375C146.395 27.18 145.84 27.855 145.103 28.3624C144.375 28.8698 143.47 29.1235 142.389 29.1235Z" fill="#1B3355"/>
<path d="M154.881 28.7214V14.7341H158.27V28.7214H154.881ZM157.437 22.6037C157.437 20.7751 157.643 19.2625 158.055 18.0658C158.467 16.869 159.017 15.9835 159.706 15.409C160.405 14.825 161.181 14.533 162.033 14.533C162.263 14.533 162.478 14.5474 162.679 14.5761C162.89 14.6049 163.095 14.6479 163.297 14.7054L163.239 18.0945C162.99 18.037 162.722 17.9892 162.435 17.9509C162.148 17.9126 161.889 17.8934 161.659 17.8934C160.913 17.8934 160.286 18.0753 159.778 18.4391C159.28 18.7934 158.902 19.3199 158.644 20.0188C158.395 20.7177 158.27 21.5793 158.27 22.6037H157.437Z" fill="#1B3355"/>
<path d="M166.157 28.7214V9.01855H169.546V28.7214H166.157ZM169.086 20.0763L175.06 14.7915H179.656L169.086 23.5803V20.0763ZM175.864 28.7214L169.632 19.8465L172.849 19.071L180 28.7214H175.864Z" fill="#1B3355"/>
<defs>
<linearGradient id="paint0_linear_1_1753" x1="40.0745" y1="12.5926" x2="40.0745" y2="21.7139" gradientUnits="userSpaceOnUse">
<stop stop-color="#4D22AA"/>
<stop offset="0.3615" stop-color="#851C91"/>
<stop offset="0.7939" stop-color="#C21575"/>
<stop offset="1" stop-color="#DA126A"/>
</linearGradient>
<linearGradient id="paint1_linear_1_1753" x1="6.99635" y1="12.9117" x2="6.99635" y2="22.033" gradientUnits="userSpaceOnUse">
<stop stop-color="#4D22AA"/>
<stop offset="0.3615" stop-color="#851C91"/>
<stop offset="0.7939" stop-color="#C21575"/>
<stop offset="1" stop-color="#DA126A"/>
</linearGradient>
<linearGradient id="paint2_linear_1_1753" x1="26.5574" y1="5.68588" x2="26.5574" y2="30.7988" gradientUnits="userSpaceOnUse">
<stop stop-color="#4D22AA"/>
<stop offset="0.3615" stop-color="#851C91"/>
<stop offset="0.7939" stop-color="#C21575"/>
<stop offset="1" stop-color="#DA126A"/>
</linearGradient>
<linearGradient id="paint3_linear_1_1753" x1="27.9488" y1="20.6704" x2="27.9488" y2="36.4846" gradientUnits="userSpaceOnUse">
<stop stop-color="#4D22AA"/>
<stop offset="0.3615" stop-color="#851C91"/>
<stop offset="0.7939" stop-color="#C21575"/>
<stop offset="1" stop-color="#DA126A"/>
</linearGradient>
<linearGradient id="paint4_linear_1_1753" x1="27.9025" y1="0" x2="27.9025" y2="14.5705" gradientUnits="userSpaceOnUse">
<stop stop-color="#4D22AA"/>
<stop offset="0.3615" stop-color="#851C91"/>
<stop offset="0.7939" stop-color="#C21575"/>
<stop offset="1" stop-color="#DA126A"/>
</linearGradient>
</defs>
</svg>
