<svg width="54" height="37" viewBox="0 0 54 37" fill="none" xmlns="http://www.w3.org/2000/svg">
<path d="M49.6254 12.6002C47.9213 12.5108 46.4086 13.3597 45.5534 14.6745C44.7747 15.868 43.3833 16.5254 41.96 16.5254H38.1816C36.7519 16.5254 35.3669 15.868 34.5882 14.6745C33.7329 13.3597 32.2203 12.5108 30.5162 12.6002C28.1738 12.7278 26.2526 14.7192 26.208 17.0679C26.1569 19.621 28.2248 21.7208 30.7651 21.7208C32.182 21.7208 33.4521 21.0698 34.2882 20.0486C35.035 19.1359 36.1966 18.6636 37.3774 18.6636H42.7578C43.9386 18.6636 45.1002 19.1359 45.847 20.0486C46.6831 21.0698 47.9532 21.7208 49.3701 21.7208C51.9167 21.7208 53.9783 19.6273 53.9272 17.0679C53.8953 14.7192 51.9742 12.7278 49.6254 12.6002ZM30.7715 19.5827C29.4311 19.5827 28.3397 18.4912 28.3397 17.1573C28.3397 15.817 29.4311 14.7256 30.7715 14.7256C32.1118 14.7256 33.2032 15.817 33.2032 17.1573C33.1968 18.4912 32.1118 19.5827 30.7715 19.5827ZM49.3765 19.5827C48.0362 19.5827 46.9511 18.4912 46.9511 17.1573C46.9511 15.817 48.0425 14.7256 49.3765 14.7256C50.7168 14.7256 51.8082 15.817 51.8082 17.1573C51.8082 18.4912 50.7168 19.5827 49.3765 19.5827Z" fill="url(#paint0_linear_954_6)"/>
<path d="M12.9191 18.9756C13.5638 18.9756 14.0808 18.4011 13.9722 17.731C13.8893 17.2076 13.3978 16.8438 12.8617 16.8438H11.6299C10.2959 16.8438 9.10877 16.1098 8.38117 14.9929C7.52591 13.6781 6.01325 12.8292 4.30912 12.9185C1.96674 13.0462 0.0456033 15.0375 0.000925674 17.3799C-0.0501344 19.9329 2.0178 22.0328 4.55804 22.0328C5.97496 22.0328 7.24508 21.3818 8.08119 20.3606C8.7705 19.5181 9.75979 18.9756 10.8448 18.9756H12.9191V18.9756ZM4.57081 19.901C3.23048 19.901 2.13907 18.8096 2.13907 17.4757C2.13907 16.1353 3.23048 15.0439 4.57081 15.0439C5.91113 15.0439 6.99616 16.1353 6.99616 17.4757C6.99616 18.8096 5.90475 19.901 4.57081 19.901Z" fill="url(#paint1_linear_954_6)"/>
<path d="M27.9626 8.52629C30.1454 8.52629 32.29 9.27943 34.0132 10.6453C34.626 11.1304 35.5195 11.0346 36.011 10.4155C36.496 9.80279 36.3939 8.90924 35.7812 8.41779C33.5601 6.65621 30.7837 5.67969 27.9626 5.67969C21.0376 5.67969 15.4082 11.3154 15.4082 18.2341C15.4082 25.1591 21.044 30.7885 27.9626 30.7885C31.5496 30.7885 34.9706 29.2567 37.3513 26.5824C37.8747 25.9952 37.8172 25.0953 37.23 24.5783C36.6428 24.0549 35.7429 24.1124 35.2259 24.6996C33.3877 26.7675 30.739 27.9547 27.9626 27.9547C22.6077 27.9547 18.2484 23.5954 18.2484 18.2405C18.2484 12.8855 22.6077 8.52629 27.9626 8.52629Z" fill="url(#paint2_linear_954_6)"/>
<path d="M44.6404 20.8265C43.8809 20.6414 43.1086 21.1137 42.9235 21.8732C41.2513 28.8046 35.0985 33.6426 27.9629 33.6426C20.7762 33.6426 14.6107 28.76 12.9767 21.7711C12.798 21.0052 12.0321 20.5329 11.2662 20.7116C10.5003 20.8903 10.028 21.6562 10.2067 22.4221C12.147 30.7002 19.4486 36.4828 27.9629 36.4828C36.4133 36.4828 43.7022 30.7513 45.6935 22.5434C45.8786 21.7839 45.4063 21.0116 44.6404 20.8265Z" fill="url(#paint3_linear_954_6)"/>
<path d="M11.5025 14.5011C11.643 14.5458 11.7898 14.5649 11.9302 14.5649C12.5301 14.5649 13.0918 14.1756 13.2833 13.5756C15.3257 7.1548 21.2231 2.84022 27.963 2.84022C34.4796 2.84022 40.3196 6.96332 42.4833 13.1097C42.496 13.1607 42.5152 13.2118 42.5279 13.2629C42.7896 14.0032 43.5938 14.3926 44.3406 14.1309C45.0809 13.8692 45.4703 13.0586 45.215 12.3183C45.2022 12.2672 45.1831 12.2161 45.1639 12.1587C42.5981 4.88901 35.6859 0 27.963 0C19.9785 0 12.9897 5.11239 10.5771 12.7204C10.3345 13.4671 10.7494 14.2649 11.5025 14.5011Z" fill="url(#paint4_linear_954_6)"/>
<defs>
<linearGradient id="paint0_linear_954_6" x1="40.0745" y1="12.5936" x2="40.0745" y2="21.7149" gradientUnits="userSpaceOnUse">
<stop stop-color="#4D22AA"/>
<stop offset="0.3615" stop-color="#851C91"/>
<stop offset="0.7939" stop-color="#C21575"/>
<stop offset="1" stop-color="#DA126A"/>
</linearGradient>
<linearGradient id="paint1_linear_954_6" x1="6.99635" y1="12.912" x2="6.99635" y2="22.0333" gradientUnits="userSpaceOnUse">
<stop stop-color="#4D22AA"/>
<stop offset="0.3615" stop-color="#851C91"/>
<stop offset="0.7939" stop-color="#C21575"/>
<stop offset="1" stop-color="#DA126A"/>
</linearGradient>
<linearGradient id="paint2_linear_954_6" x1="26.5574" y1="5.68518" x2="26.5574" y2="30.7981" gradientUnits="userSpaceOnUse">
<stop stop-color="#4D22AA"/>
<stop offset="0.3615" stop-color="#851C91"/>
<stop offset="0.7939" stop-color="#C21575"/>
<stop offset="1" stop-color="#DA126A"/>
</linearGradient>
<linearGradient id="paint3_linear_954_6" x1="27.9498" y1="20.6709" x2="27.9498" y2="36.4851" gradientUnits="userSpaceOnUse">
<stop stop-color="#4D22AA"/>
<stop offset="0.3615" stop-color="#851C91"/>
<stop offset="0.7939" stop-color="#C21575"/>
<stop offset="1" stop-color="#DA126A"/>
</linearGradient>
<linearGradient id="paint4_linear_954_6" x1="27.9025" y1="0" x2="27.9025" y2="14.5705" gradientUnits="userSpaceOnUse">
<stop stop-color="#4D22AA"/>
<stop offset="0.3615" stop-color="#851C91"/>
<stop offset="0.7939" stop-color="#C21575"/>
<stop offset="1" stop-color="#DA126A"/>
</linearGradient>
</defs>
</svg>
